<mxfile host="Electron" agent="Mozilla/5.0 (Windows NT 10.0; Win64; x64) AppleWebKit/537.36 (KHTML, like Gecko) draw.io/28.1.2 Chrome/138.0.7204.243 Electron/37.4.0 Safari/537.36" version="28.1.2">
  <diagram name="Page-1" id="efa7a0a1-bf9b-a30e-e6df-94a7791c09e9">
    <mxGraphModel dx="1558" dy="1818" grid="1" gridSize="10" guides="1" tooltips="1" connect="1" arrows="1" fold="1" page="1" pageScale="1" pageWidth="826" pageHeight="1169" background="none" math="0" shadow="0">
      <root>
        <mxCell id="0" />
        <mxCell id="1" parent="0" />
        <mxCell id="jN2Ao2LM-aUM4iMut1JE-193" value="Service Portfolio Management" style="rounded=1;whiteSpace=wrap;html=1;fillColor=#E9FFE8;strokeColor=#82b366;dashed=1;verticalAlign=top;align=center;" vertex="1" parent="1">
          <mxGeometry x="1400" y="-72" width="600" height="790" as="geometry" />
        </mxCell>
        <mxCell id="y1ez__rVfO7GERN6JN9X-144" value="Customer Relationship Management" style="rounded=1;whiteSpace=wrap;html=1;fillColor=#EAF4FC;strokeColor=#6c8ebf;dashed=1;verticalAlign=top;align=center;" parent="1" vertex="1">
          <mxGeometry x="760" y="-540" width="500" height="680" as="geometry" />
        </mxCell>
        <mxCell id="jN2Ao2LM-aUM4iMut1JE-113" value="Continual Improvement" style="rounded=1;whiteSpace=wrap;html=1;fillColor=#f5f5f5;strokeColor=#666666;dashed=1;verticalAlign=top;align=center;fontColor=#333333;" vertex="1" parent="1">
          <mxGeometry x="760" y="-1090" width="500" height="530" as="geometry" />
        </mxCell>
        <mxCell id="y1ez__rVfO7GERN6JN9X-115" value="Management System" style="rounded=1;whiteSpace=wrap;html=1;fillColor=light-dark(#fff3e5, #36210a);strokeColor=#d79b00;dashed=1;verticalAlign=top;align=center;" parent="1" vertex="1">
          <mxGeometry x="60" y="-47" width="400" height="740" as="geometry" />
        </mxCell>
        <mxCell id="21" value="&lt;p style=&quot;margin: 4px 0px 0px; text-align: center;&quot;&gt;&lt;strong style=&quot;&quot;&gt;Process CRM&lt;/strong&gt;&lt;/p&gt;&lt;hr&gt;&lt;p style=&quot;margin: 0px; margin-left: 8px;&quot;&gt;&lt;br&gt;&lt;/p&gt;" style="verticalAlign=top;align=left;overflow=fill;fontSize=12;fontFamily=Helvetica;html=1;strokeColor=#82b366;shadow=1;fillColor=#d5e8d4;" parent="1" vertex="1">
          <mxGeometry x="290" y="83" width="143" height="40" as="geometry" />
        </mxCell>
        <mxCell id="y1ez__rVfO7GERN6JN9X-117" value="&lt;p style=&quot;margin: 4px 0px 0px; text-align: center;&quot;&gt;&lt;strong style=&quot;&quot;&gt;Policy&lt;/strong&gt;&lt;/p&gt;&lt;hr&gt;&lt;p style=&quot;margin: 0px; margin-left: 8px;&quot;&gt;&lt;br&gt;&lt;/p&gt;" style="verticalAlign=top;align=left;overflow=fill;fontSize=12;fontFamily=Helvetica;html=1;strokeColor=#6c8ebf;shadow=1;fillColor=#dae8fc;" parent="1" vertex="1">
          <mxGeometry x="107" y="203" width="110" height="40" as="geometry" />
        </mxCell>
        <mxCell id="y1ez__rVfO7GERN6JN9X-120" value="&lt;p style=&quot;margin: 4px 0px 0px; text-align: center;&quot;&gt;&lt;strong style=&quot;&quot;&gt;Policy Review&lt;/strong&gt;&lt;/p&gt;&lt;hr&gt;&lt;p style=&quot;margin: 0px; margin-left: 8px;&quot;&gt;&lt;br&gt;&lt;/p&gt;" style="verticalAlign=top;align=left;overflow=fill;fontSize=12;fontFamily=Helvetica;html=1;strokeColor=#666666;shadow=1;fillColor=#C4D2E4;fontColor=#333333;" parent="1" vertex="1">
          <mxGeometry x="107" y="300" width="110" height="40" as="geometry" />
        </mxCell>
        <mxCell id="y1ez__rVfO7GERN6JN9X-121" value="" style="endArrow=open;endSize=12;startArrow=diamondThin;startSize=14;startFill=0;edgeStyle=orthogonalEdgeStyle;labelBackgroundColor=default;entryX=0.5;entryY=1;entryDx=0;entryDy=0;exitX=0.5;exitY=0;exitDx=0;exitDy=0;" parent="1" source="y1ez__rVfO7GERN6JN9X-120" target="y1ez__rVfO7GERN6JN9X-117" edge="1">
          <mxGeometry x="620" y="340" as="geometry">
            <mxPoint x="-93" y="259" as="sourcePoint" />
            <mxPoint x="-280" y="363" as="targetPoint" />
          </mxGeometry>
        </mxCell>
        <mxCell id="y1ez__rVfO7GERN6JN9X-122" value="0..n" style="resizable=0;align=left;verticalAlign=top;labelBackgroundColor=none;fontSize=10;strokeColor=#003366;shadow=1;fillColor=#D4E1F5;fontColor=#003366" parent="y1ez__rVfO7GERN6JN9X-121" connectable="0" vertex="1">
          <mxGeometry x="-1" relative="1" as="geometry">
            <mxPoint x="9" y="-22" as="offset" />
          </mxGeometry>
        </mxCell>
        <mxCell id="y1ez__rVfO7GERN6JN9X-123" value="1" style="resizable=0;align=right;verticalAlign=top;labelBackgroundColor=none;fontSize=10;strokeColor=#003366;shadow=1;fillColor=#D4E1F5;fontColor=#003366" parent="y1ez__rVfO7GERN6JN9X-121" connectable="0" vertex="1">
          <mxGeometry x="1" relative="1" as="geometry">
            <mxPoint x="19" as="offset" />
          </mxGeometry>
        </mxCell>
        <mxCell id="y1ez__rVfO7GERN6JN9X-124" value="is review of" style="edgeLabel;html=1;align=center;verticalAlign=middle;resizable=0;points=[];labelBackgroundColor=none;" parent="y1ez__rVfO7GERN6JN9X-121" vertex="1" connectable="0">
          <mxGeometry relative="1" as="geometry">
            <mxPoint x="-1" as="offset" />
          </mxGeometry>
        </mxCell>
        <mxCell id="y1ez__rVfO7GERN6JN9X-128" value="&lt;p style=&quot;margin: 4px 0px 0px; text-align: center;&quot;&gt;&lt;strong style=&quot;&quot;&gt;Procedure&lt;/strong&gt;&lt;/p&gt;&lt;hr&gt;&lt;p style=&quot;margin: 0px; margin-left: 8px;&quot;&gt;&lt;br&gt;&lt;/p&gt;" style="verticalAlign=top;align=left;overflow=fill;fontSize=12;fontFamily=Helvetica;html=1;strokeColor=#82b366;shadow=1;fillColor=#ACE8E1;" parent="1" vertex="1">
          <mxGeometry x="100" y="33" width="124" height="40" as="geometry" />
        </mxCell>
        <mxCell id="y1ez__rVfO7GERN6JN9X-133" value="&lt;p style=&quot;margin: 4px 0px 0px; text-align: center;&quot;&gt;&lt;strong style=&quot;&quot;&gt;Procedure Review&lt;/strong&gt;&lt;/p&gt;&lt;hr&gt;&lt;p style=&quot;margin: 0px; margin-left: 8px;&quot;&gt;&lt;br&gt;&lt;/p&gt;" style="verticalAlign=top;align=left;overflow=fill;fontSize=12;fontFamily=Helvetica;html=1;strokeColor=#d79b00;shadow=1;fillColor=#8DC2BB;" parent="1" vertex="1">
          <mxGeometry x="100" y="130" width="124" height="40" as="geometry" />
        </mxCell>
        <mxCell id="y1ez__rVfO7GERN6JN9X-134" value="&lt;p style=&quot;margin: 4px 0px 0px; text-align: center;&quot;&gt;&lt;strong style=&quot;&quot;&gt;Key Performance Indicator&lt;/strong&gt;&lt;/p&gt;&lt;hr&gt;&lt;p style=&quot;margin: 0px; margin-left: 8px;&quot;&gt;&lt;br&gt;&lt;/p&gt;" style="verticalAlign=top;align=left;overflow=fill;fontSize=12;fontFamily=Helvetica;html=1;strokeColor=#2D7600;shadow=1;fillColor=#009999;fontColor=#ffffff;" parent="1" vertex="1">
          <mxGeometry x="79.5" y="373" width="165" height="40" as="geometry" />
        </mxCell>
        <mxCell id="y1ez__rVfO7GERN6JN9X-135" value="&lt;p style=&quot;margin: 4px 0px 0px; text-align: center;&quot;&gt;&lt;strong style=&quot;&quot;&gt;Measurement&lt;/strong&gt;&lt;/p&gt;&lt;hr&gt;&lt;p style=&quot;margin: 0px; margin-left: 8px;&quot;&gt;&lt;br&gt;&lt;/p&gt;" style="verticalAlign=top;align=left;overflow=fill;fontSize=12;fontFamily=Helvetica;html=1;strokeColor=#6c8ebf;shadow=1;fillColor=#8FCBFC;" parent="1" vertex="1">
          <mxGeometry x="98" y="470" width="126.5" height="40" as="geometry" />
        </mxCell>
        <mxCell id="y1ez__rVfO7GERN6JN9X-136" value="" style="endArrow=open;endSize=12;startArrow=diamondThin;startSize=14;startFill=0;edgeStyle=orthogonalEdgeStyle;labelBackgroundColor=default;entryX=0.5;entryY=1;entryDx=0;entryDy=0;exitX=0.5;exitY=0;exitDx=0;exitDy=0;" parent="1" source="y1ez__rVfO7GERN6JN9X-135" target="y1ez__rVfO7GERN6JN9X-134" edge="1">
          <mxGeometry x="620" y="340" as="geometry">
            <mxPoint x="-779.5" y="623" as="sourcePoint" />
            <mxPoint x="-907.5" y="603" as="targetPoint" />
          </mxGeometry>
        </mxCell>
        <mxCell id="y1ez__rVfO7GERN6JN9X-137" value="0..n" style="resizable=0;align=left;verticalAlign=top;labelBackgroundColor=none;fontSize=10;strokeColor=#003366;shadow=1;fillColor=#D4E1F5;fontColor=#003366" parent="y1ez__rVfO7GERN6JN9X-136" connectable="0" vertex="1">
          <mxGeometry x="-1" relative="1" as="geometry">
            <mxPoint x="8" y="-22" as="offset" />
          </mxGeometry>
        </mxCell>
        <mxCell id="y1ez__rVfO7GERN6JN9X-138" value="1" style="resizable=0;align=right;verticalAlign=top;labelBackgroundColor=none;fontSize=10;strokeColor=#003366;shadow=1;fillColor=#D4E1F5;fontColor=#003366" parent="y1ez__rVfO7GERN6JN9X-136" connectable="0" vertex="1">
          <mxGeometry x="1" relative="1" as="geometry">
            <mxPoint x="20" as="offset" />
          </mxGeometry>
        </mxCell>
        <mxCell id="y1ez__rVfO7GERN6JN9X-139" value="is measurement for" style="edgeLabel;html=1;align=center;verticalAlign=middle;resizable=0;points=[];labelBackgroundColor=none;" parent="y1ez__rVfO7GERN6JN9X-136" vertex="1" connectable="0">
          <mxGeometry relative="1" as="geometry">
            <mxPoint x="3" as="offset" />
          </mxGeometry>
        </mxCell>
        <mxCell id="y1ez__rVfO7GERN6JN9X-140" value="" style="endArrow=open;endSize=12;startArrow=diamondThin;startSize=14;startFill=0;edgeStyle=orthogonalEdgeStyle;labelBackgroundColor=default;entryX=0.5;entryY=1;entryDx=0;entryDy=0;exitX=0.5;exitY=0;exitDx=0;exitDy=0;" parent="1" source="y1ez__rVfO7GERN6JN9X-133" target="y1ez__rVfO7GERN6JN9X-128" edge="1">
          <mxGeometry x="620" y="340" as="geometry">
            <mxPoint x="-650" y="223" as="sourcePoint" />
            <mxPoint x="-650" y="153" as="targetPoint" />
          </mxGeometry>
        </mxCell>
        <mxCell id="y1ez__rVfO7GERN6JN9X-141" value="0..n" style="resizable=0;align=left;verticalAlign=top;labelBackgroundColor=none;fontSize=10;strokeColor=#003366;shadow=1;fillColor=#D4E1F5;fontColor=#003366" parent="y1ez__rVfO7GERN6JN9X-140" connectable="0" vertex="1">
          <mxGeometry x="-1" relative="1" as="geometry">
            <mxPoint x="9" y="-22" as="offset" />
          </mxGeometry>
        </mxCell>
        <mxCell id="y1ez__rVfO7GERN6JN9X-142" value="1" style="resizable=0;align=right;verticalAlign=top;labelBackgroundColor=none;fontSize=10;strokeColor=#003366;shadow=1;fillColor=#D4E1F5;fontColor=#003366" parent="y1ez__rVfO7GERN6JN9X-140" connectable="0" vertex="1">
          <mxGeometry x="1" relative="1" as="geometry">
            <mxPoint x="19" as="offset" />
          </mxGeometry>
        </mxCell>
        <mxCell id="y1ez__rVfO7GERN6JN9X-143" value="is review of" style="edgeLabel;html=1;align=center;verticalAlign=middle;resizable=0;points=[];labelBackgroundColor=none;" parent="y1ez__rVfO7GERN6JN9X-140" vertex="1" connectable="0">
          <mxGeometry relative="1" as="geometry">
            <mxPoint x="-1" as="offset" />
          </mxGeometry>
        </mxCell>
        <mxCell id="y1ez__rVfO7GERN6JN9X-181" value="&lt;p style=&quot;margin: 4px 0px 0px; text-align: center;&quot;&gt;&lt;strong style=&quot;&quot;&gt;Process SMS&lt;/strong&gt;&lt;/p&gt;&lt;hr&gt;&lt;p style=&quot;margin: 0px; margin-left: 8px;&quot;&gt;&lt;br&gt;&lt;/p&gt;" style="verticalAlign=top;align=left;overflow=fill;fontSize=12;fontFamily=Helvetica;html=1;strokeColor=#82b366;shadow=1;fillColor=#d5e8d4;" parent="1" vertex="1">
          <mxGeometry x="290" y="503" width="143" height="40" as="geometry" />
        </mxCell>
        <mxCell id="y1ez__rVfO7GERN6JN9X-182" value="&lt;p style=&quot;margin: 4px 0px 0px; text-align: center;&quot;&gt;&lt;strong style=&quot;&quot;&gt;Management Review&lt;/strong&gt;&lt;/p&gt;&lt;hr&gt;&lt;p style=&quot;margin: 0px; margin-left: 8px;&quot;&gt;&lt;br&gt;&lt;/p&gt;" style="verticalAlign=top;align=left;overflow=fill;fontSize=12;fontFamily=Helvetica;html=1;strokeColor=#d6b656;shadow=1;fillColor=#fff2cc;" parent="1" vertex="1">
          <mxGeometry x="281.5" y="603" width="160" height="40" as="geometry" />
        </mxCell>
        <mxCell id="y1ez__rVfO7GERN6JN9X-183" value="" style="endArrow=open;endSize=12;startArrow=diamondThin;startSize=14;startFill=0;edgeStyle=orthogonalEdgeStyle;labelBackgroundColor=default;exitX=0.5;exitY=0;exitDx=0;exitDy=0;" parent="1" source="y1ez__rVfO7GERN6JN9X-182" target="y1ez__rVfO7GERN6JN9X-181" edge="1">
          <mxGeometry x="620" y="340" as="geometry">
            <mxPoint x="249" y="140" as="sourcePoint" />
            <mxPoint x="249" y="83" as="targetPoint" />
          </mxGeometry>
        </mxCell>
        <mxCell id="y1ez__rVfO7GERN6JN9X-184" value="0..n" style="resizable=0;align=left;verticalAlign=top;labelBackgroundColor=none;fontSize=10;strokeColor=#003366;shadow=1;fillColor=#D4E1F5;fontColor=#003366" parent="y1ez__rVfO7GERN6JN9X-183" connectable="0" vertex="1">
          <mxGeometry x="-1" relative="1" as="geometry">
            <mxPoint x="9" y="-22" as="offset" />
          </mxGeometry>
        </mxCell>
        <mxCell id="y1ez__rVfO7GERN6JN9X-185" value="1" style="resizable=0;align=right;verticalAlign=top;labelBackgroundColor=none;fontSize=10;strokeColor=#003366;shadow=1;fillColor=#D4E1F5;fontColor=#003366" parent="y1ez__rVfO7GERN6JN9X-183" connectable="0" vertex="1">
          <mxGeometry x="1" relative="1" as="geometry">
            <mxPoint x="19" as="offset" />
          </mxGeometry>
        </mxCell>
        <mxCell id="y1ez__rVfO7GERN6JN9X-186" value="is review of" style="edgeLabel;html=1;align=center;verticalAlign=middle;resizable=0;points=[];labelBackgroundColor=none;" parent="y1ez__rVfO7GERN6JN9X-183" vertex="1" connectable="0">
          <mxGeometry relative="1" as="geometry">
            <mxPoint x="-1" as="offset" />
          </mxGeometry>
        </mxCell>
        <mxCell id="90" value="" style="endArrow=open;endSize=12;startArrow=diamondThin;startSize=14;startFill=0;edgeStyle=orthogonalEdgeStyle;labelBackgroundColor=default;entryX=1;entryY=0.5;entryDx=0;entryDy=0;exitX=0;exitY=0.5;exitDx=0;exitDy=0;" parent="1" source="25" target="21" edge="1">
          <mxGeometry x="620" y="340" as="geometry">
            <mxPoint x="660" y="233" as="sourcePoint" />
            <mxPoint x="820" y="233" as="targetPoint" />
            <Array as="points">
              <mxPoint x="630" y="-317" />
              <mxPoint x="630" y="103" />
            </Array>
          </mxGeometry>
        </mxCell>
        <mxCell id="91" value="0..n" style="resizable=0;align=left;verticalAlign=top;labelBackgroundColor=none;fontSize=10;strokeColor=#003366;shadow=1;fillColor=#D4E1F5;fontColor=#003366" parent="90" connectable="0" vertex="1">
          <mxGeometry x="-1" relative="1" as="geometry">
            <mxPoint x="-30" as="offset" />
          </mxGeometry>
        </mxCell>
        <mxCell id="92" value="1" style="resizable=0;align=right;verticalAlign=top;labelBackgroundColor=none;fontSize=10;strokeColor=#003366;shadow=1;fillColor=#D4E1F5;fontColor=#003366" parent="90" connectable="0" vertex="1">
          <mxGeometry x="1" relative="1" as="geometry">
            <mxPoint x="21" y="-25" as="offset" />
          </mxGeometry>
        </mxCell>
        <mxCell id="jN2Ao2LM-aUM4iMut1JE-192" value="is review of" style="edgeLabel;html=1;align=center;verticalAlign=middle;resizable=0;points=[];labelBackgroundColor=none;" vertex="1" connectable="0" parent="90">
          <mxGeometry relative="1" as="geometry">
            <mxPoint x="-140" y="172" as="offset" />
          </mxGeometry>
        </mxCell>
        <mxCell id="jN2Ao2LM-aUM4iMut1JE-110" value="&lt;p style=&quot;margin: 4px 0px 0px; text-align: center;&quot;&gt;&lt;strong style=&quot;&quot;&gt;Process CSI&lt;/strong&gt;&lt;/p&gt;&lt;hr&gt;&lt;p style=&quot;margin: 0px; margin-left: 8px;&quot;&gt;&lt;br&gt;&lt;/p&gt;" style="verticalAlign=top;align=left;overflow=fill;fontSize=12;fontFamily=Helvetica;html=1;strokeColor=#82b366;shadow=1;fillColor=#d5e8d4;" vertex="1" parent="1">
          <mxGeometry x="290" y="33" width="143" height="40" as="geometry" />
        </mxCell>
        <mxCell id="jN2Ao2LM-aUM4iMut1JE-111" value="&lt;p style=&quot;margin: 4px 0px 0px; text-align: center;&quot;&gt;&lt;strong style=&quot;&quot;&gt;Process SPM&lt;/strong&gt;&lt;/p&gt;&lt;hr&gt;&lt;p style=&quot;margin: 0px; margin-left: 8px;&quot;&gt;&lt;br&gt;&lt;/p&gt;" style="verticalAlign=top;align=left;overflow=fill;fontSize=12;fontFamily=Helvetica;html=1;strokeColor=#82b366;shadow=1;fillColor=#d5e8d4;" vertex="1" parent="1">
          <mxGeometry x="290" y="133" width="143" height="40" as="geometry" />
        </mxCell>
        <mxCell id="jN2Ao2LM-aUM4iMut1JE-112" value="&lt;p style=&quot;margin: 4px 0px 0px; text-align: center;&quot;&gt;&lt;strong style=&quot;&quot;&gt;Process SLM&lt;/strong&gt;&lt;/p&gt;&lt;hr&gt;&lt;p style=&quot;margin: 0px; margin-left: 8px;&quot;&gt;&lt;br&gt;&lt;/p&gt;" style="verticalAlign=top;align=left;overflow=fill;fontSize=12;fontFamily=Helvetica;html=1;strokeColor=#82b366;shadow=1;fillColor=#d5e8d4;" vertex="1" parent="1">
          <mxGeometry x="290" y="183" width="143" height="40" as="geometry" />
        </mxCell>
        <mxCell id="jN2Ao2LM-aUM4iMut1JE-114" value="&lt;p style=&quot;margin: 4px 0px 0px; text-align: center;&quot;&gt;&lt;strong style=&quot;&quot;&gt;Process Review&lt;/strong&gt;&lt;/p&gt;&lt;hr&gt;&lt;p style=&quot;margin: 0px; margin-left: 8px;&quot;&gt;&lt;br&gt;&lt;/p&gt;" style="verticalAlign=top;align=left;overflow=fill;fontSize=12;fontFamily=Helvetica;html=1;strokeColor=#d6b656;shadow=1;fillColor=#fff2cc;" vertex="1" parent="1">
          <mxGeometry x="795" y="-890" width="124" height="40" as="geometry" />
        </mxCell>
        <mxCell id="jN2Ao2LM-aUM4iMut1JE-115" value="" style="endArrow=open;endSize=12;startArrow=diamondThin;startSize=14;startFill=0;edgeStyle=orthogonalEdgeStyle;labelBackgroundColor=default;entryX=1;entryY=0.5;entryDx=0;entryDy=0;exitX=0;exitY=0.5;exitDx=0;exitDy=0;" edge="1" parent="1" source="jN2Ao2LM-aUM4iMut1JE-114" target="jN2Ao2LM-aUM4iMut1JE-110">
          <mxGeometry x="620" y="340" as="geometry">
            <mxPoint x="1130" y="-57" as="sourcePoint" />
            <mxPoint x="443" y="113" as="targetPoint" />
            <Array as="points">
              <mxPoint x="620" y="-870" />
              <mxPoint x="620" y="53" />
            </Array>
          </mxGeometry>
        </mxCell>
        <mxCell id="jN2Ao2LM-aUM4iMut1JE-116" value="0..n" style="resizable=0;align=left;verticalAlign=top;labelBackgroundColor=none;fontSize=10;strokeColor=#003366;shadow=1;fillColor=#D4E1F5;fontColor=#003366" connectable="0" vertex="1" parent="jN2Ao2LM-aUM4iMut1JE-115">
          <mxGeometry x="-1" relative="1" as="geometry">
            <mxPoint x="-30" as="offset" />
          </mxGeometry>
        </mxCell>
        <mxCell id="jN2Ao2LM-aUM4iMut1JE-117" value="1" style="resizable=0;align=right;verticalAlign=top;labelBackgroundColor=none;fontSize=10;strokeColor=#003366;shadow=1;fillColor=#D4E1F5;fontColor=#003366" connectable="0" vertex="1" parent="jN2Ao2LM-aUM4iMut1JE-115">
          <mxGeometry x="1" relative="1" as="geometry">
            <mxPoint x="21" y="-25" as="offset" />
          </mxGeometry>
        </mxCell>
        <mxCell id="jN2Ao2LM-aUM4iMut1JE-209" value="is review of" style="edgeLabel;html=1;align=center;verticalAlign=middle;resizable=0;points=[];labelBackgroundColor=none;" vertex="1" connectable="0" parent="jN2Ao2LM-aUM4iMut1JE-115">
          <mxGeometry relative="1" as="geometry">
            <mxPoint x="-124" y="452" as="offset" />
          </mxGeometry>
        </mxCell>
        <mxCell id="jN2Ao2LM-aUM4iMut1JE-119" value="&lt;p style=&quot;margin: 4px 0px 0px; text-align: center;&quot;&gt;&lt;strong style=&quot;&quot;&gt;Procedure&lt;/strong&gt;&lt;/p&gt;&lt;hr&gt;&lt;p style=&quot;margin: 0px; margin-left: 8px;&quot;&gt;&lt;br&gt;&lt;/p&gt;" style="verticalAlign=top;align=left;overflow=fill;fontSize=12;fontFamily=Helvetica;html=1;strokeColor=#82b366;shadow=1;fillColor=#ACE8E1;" vertex="1" parent="1">
          <mxGeometry x="795" y="-1050" width="124" height="40" as="geometry" />
        </mxCell>
        <mxCell id="jN2Ao2LM-aUM4iMut1JE-120" value="&lt;p style=&quot;margin: 4px 0px 0px; text-align: center;&quot;&gt;&lt;strong style=&quot;&quot;&gt;Procedure Review&lt;/strong&gt;&lt;/p&gt;&lt;hr&gt;&lt;p style=&quot;margin: 0px; margin-left: 8px;&quot;&gt;&lt;br&gt;&lt;/p&gt;" style="verticalAlign=top;align=left;overflow=fill;fontSize=12;fontFamily=Helvetica;html=1;strokeColor=#d79b00;shadow=1;fillColor=#8DC2BB;" vertex="1" parent="1">
          <mxGeometry x="795" y="-953" width="124" height="40" as="geometry" />
        </mxCell>
        <mxCell id="jN2Ao2LM-aUM4iMut1JE-121" value="" style="endArrow=open;endSize=12;startArrow=diamondThin;startSize=14;startFill=0;edgeStyle=orthogonalEdgeStyle;labelBackgroundColor=default;entryX=0.5;entryY=1;entryDx=0;entryDy=0;exitX=0.5;exitY=0;exitDx=0;exitDy=0;" edge="1" source="jN2Ao2LM-aUM4iMut1JE-120" target="jN2Ao2LM-aUM4iMut1JE-119" parent="1">
          <mxGeometry x="620" y="340" as="geometry">
            <mxPoint x="45" y="-860" as="sourcePoint" />
            <mxPoint x="45" y="-930" as="targetPoint" />
          </mxGeometry>
        </mxCell>
        <mxCell id="jN2Ao2LM-aUM4iMut1JE-122" value="0..n" style="resizable=0;align=left;verticalAlign=top;labelBackgroundColor=none;fontSize=10;strokeColor=#003366;shadow=1;fillColor=#D4E1F5;fontColor=#003366" connectable="0" vertex="1" parent="jN2Ao2LM-aUM4iMut1JE-121">
          <mxGeometry x="-1" relative="1" as="geometry">
            <mxPoint x="9" y="-22" as="offset" />
          </mxGeometry>
        </mxCell>
        <mxCell id="jN2Ao2LM-aUM4iMut1JE-123" value="1" style="resizable=0;align=right;verticalAlign=top;labelBackgroundColor=none;fontSize=10;strokeColor=#003366;shadow=1;fillColor=#D4E1F5;fontColor=#003366" connectable="0" vertex="1" parent="jN2Ao2LM-aUM4iMut1JE-121">
          <mxGeometry x="1" relative="1" as="geometry">
            <mxPoint x="19" as="offset" />
          </mxGeometry>
        </mxCell>
        <mxCell id="jN2Ao2LM-aUM4iMut1JE-124" value="is review of" style="edgeLabel;html=1;align=center;verticalAlign=middle;resizable=0;points=[];labelBackgroundColor=none;" vertex="1" connectable="0" parent="jN2Ao2LM-aUM4iMut1JE-121">
          <mxGeometry relative="1" as="geometry">
            <mxPoint x="-1" as="offset" />
          </mxGeometry>
        </mxCell>
        <mxCell id="jN2Ao2LM-aUM4iMut1JE-125" value="&lt;p style=&quot;margin: 4px 0px 0px; text-align: center;&quot;&gt;&lt;strong style=&quot;&quot;&gt;Key Performance Indicator&lt;/strong&gt;&lt;/p&gt;&lt;hr&gt;&lt;p style=&quot;margin: 0px; margin-left: 8px;&quot;&gt;&lt;br&gt;&lt;/p&gt;" style="verticalAlign=top;align=left;overflow=fill;fontSize=12;fontFamily=Helvetica;html=1;strokeColor=#2D7600;shadow=1;fillColor=#009999;fontColor=#ffffff;" vertex="1" parent="1">
          <mxGeometry x="930" y="-1050" width="165" height="40" as="geometry" />
        </mxCell>
        <mxCell id="jN2Ao2LM-aUM4iMut1JE-126" value="&lt;p style=&quot;margin: 4px 0px 0px; text-align: center;&quot;&gt;&lt;strong style=&quot;&quot;&gt;Measurement&lt;/strong&gt;&lt;/p&gt;&lt;hr&gt;&lt;p style=&quot;margin: 0px; margin-left: 8px;&quot;&gt;&lt;br&gt;&lt;/p&gt;" style="verticalAlign=top;align=left;overflow=fill;fontSize=12;fontFamily=Helvetica;html=1;strokeColor=#6c8ebf;shadow=1;fillColor=#8FCBFC;" vertex="1" parent="1">
          <mxGeometry x="948.5" y="-953" width="126.5" height="40" as="geometry" />
        </mxCell>
        <mxCell id="jN2Ao2LM-aUM4iMut1JE-127" value="" style="endArrow=open;endSize=12;startArrow=diamondThin;startSize=14;startFill=0;edgeStyle=orthogonalEdgeStyle;labelBackgroundColor=default;entryX=0.5;entryY=1;entryDx=0;entryDy=0;exitX=0.5;exitY=0;exitDx=0;exitDy=0;" edge="1" source="jN2Ao2LM-aUM4iMut1JE-126" target="jN2Ao2LM-aUM4iMut1JE-125" parent="1">
          <mxGeometry x="620" y="340" as="geometry">
            <mxPoint x="71" y="-800" as="sourcePoint" />
            <mxPoint x="-57" y="-820" as="targetPoint" />
          </mxGeometry>
        </mxCell>
        <mxCell id="jN2Ao2LM-aUM4iMut1JE-128" value="0..n" style="resizable=0;align=left;verticalAlign=top;labelBackgroundColor=none;fontSize=10;strokeColor=#003366;shadow=1;fillColor=#D4E1F5;fontColor=#003366" connectable="0" vertex="1" parent="jN2Ao2LM-aUM4iMut1JE-127">
          <mxGeometry x="-1" relative="1" as="geometry">
            <mxPoint x="8" y="-22" as="offset" />
          </mxGeometry>
        </mxCell>
        <mxCell id="jN2Ao2LM-aUM4iMut1JE-129" value="1" style="resizable=0;align=right;verticalAlign=top;labelBackgroundColor=none;fontSize=10;strokeColor=#003366;shadow=1;fillColor=#D4E1F5;fontColor=#003366" connectable="0" vertex="1" parent="jN2Ao2LM-aUM4iMut1JE-127">
          <mxGeometry x="1" relative="1" as="geometry">
            <mxPoint x="20" as="offset" />
          </mxGeometry>
        </mxCell>
        <mxCell id="jN2Ao2LM-aUM4iMut1JE-130" value="is measurement for" style="edgeLabel;html=1;align=center;verticalAlign=middle;resizable=0;points=[];labelBackgroundColor=none;" vertex="1" connectable="0" parent="jN2Ao2LM-aUM4iMut1JE-127">
          <mxGeometry relative="1" as="geometry">
            <mxPoint x="3" as="offset" />
          </mxGeometry>
        </mxCell>
        <mxCell id="jN2Ao2LM-aUM4iMut1JE-187" value="&lt;p style=&quot;margin: 4px 0px 0px; text-align: center;&quot;&gt;&lt;strong style=&quot;&quot;&gt;Improvement Suggestion&lt;/strong&gt;&lt;/p&gt;&lt;hr&gt;&lt;p style=&quot;margin: 0px; margin-left: 8px;&quot;&gt;&lt;br&gt;&lt;/p&gt;" style="verticalAlign=top;align=left;overflow=fill;fontSize=12;fontFamily=Helvetica;html=1;strokeColor=#6c8ebf;shadow=1;fillColor=#dae8fc;" vertex="1" parent="1">
          <mxGeometry x="795" y="-720" width="180" height="40" as="geometry" />
        </mxCell>
        <mxCell id="jN2Ao2LM-aUM4iMut1JE-188" value="" style="endArrow=open;endSize=12;startArrow=diamondThin;startSize=14;startFill=0;edgeStyle=orthogonalEdgeStyle;labelBackgroundColor=default;exitX=0;exitY=0.5;exitDx=0;exitDy=0;entryX=0.25;entryY=0;entryDx=0;entryDy=0;" edge="1" parent="1" source="jN2Ao2LM-aUM4iMut1JE-187" target="y1ez__rVfO7GERN6JN9X-208">
          <mxGeometry x="1660" y="150" as="geometry">
            <mxPoint x="889" y="-220" as="sourcePoint" />
            <mxPoint x="809" y="-50" as="targetPoint" />
            <Array as="points">
              <mxPoint x="709" y="-700" />
              <mxPoint x="709" y="-180" />
              <mxPoint x="885" y="-180" />
            </Array>
          </mxGeometry>
        </mxCell>
        <mxCell id="jN2Ao2LM-aUM4iMut1JE-189" value="0..n" style="resizable=0;align=left;verticalAlign=top;labelBackgroundColor=none;fontSize=10;strokeColor=#003366;shadow=1;fillColor=#D4E1F5;fontColor=#003366" connectable="0" vertex="1" parent="jN2Ao2LM-aUM4iMut1JE-188">
          <mxGeometry x="-1" relative="1" as="geometry">
            <mxPoint x="-30" as="offset" />
          </mxGeometry>
        </mxCell>
        <mxCell id="jN2Ao2LM-aUM4iMut1JE-190" value="1" style="resizable=0;align=right;verticalAlign=top;labelBackgroundColor=none;fontSize=10;strokeColor=#003366;shadow=1;fillColor=#D4E1F5;fontColor=#003366" connectable="0" vertex="1" parent="jN2Ao2LM-aUM4iMut1JE-188">
          <mxGeometry x="1" relative="1" as="geometry">
            <mxPoint x="-10" y="-27" as="offset" />
          </mxGeometry>
        </mxCell>
        <mxCell id="jN2Ao2LM-aUM4iMut1JE-210" value="relates to" style="edgeLabel;html=1;align=center;verticalAlign=middle;resizable=0;points=[];labelBackgroundColor=none;" vertex="1" connectable="0" parent="jN2Ao2LM-aUM4iMut1JE-188">
          <mxGeometry relative="1" as="geometry">
            <mxPoint x="79" y="179" as="offset" />
          </mxGeometry>
        </mxCell>
        <mxCell id="jN2Ao2LM-aUM4iMut1JE-195" value="&lt;p style=&quot;margin: 4px 0px 0px; text-align: center;&quot;&gt;&lt;strong style=&quot;&quot;&gt;Process Review&lt;/strong&gt;&lt;/p&gt;&lt;hr&gt;&lt;p style=&quot;margin: 0px; margin-left: 8px;&quot;&gt;&lt;br&gt;&lt;/p&gt;" style="verticalAlign=top;align=left;overflow=fill;fontSize=12;fontFamily=Helvetica;html=1;strokeColor=#d6b656;shadow=1;fillColor=#fff2cc;" vertex="1" parent="1">
          <mxGeometry x="1434" y="133" width="124" height="40" as="geometry" />
        </mxCell>
        <mxCell id="jN2Ao2LM-aUM4iMut1JE-197" value="&lt;p style=&quot;margin: 4px 0px 0px; text-align: center;&quot;&gt;&lt;strong style=&quot;&quot;&gt;Procedure&lt;/strong&gt;&lt;/p&gt;&lt;hr&gt;&lt;p style=&quot;margin: 0px; margin-left: 8px;&quot;&gt;&lt;br&gt;&lt;/p&gt;" style="verticalAlign=top;align=left;overflow=fill;fontSize=12;fontFamily=Helvetica;html=1;strokeColor=#82b366;shadow=1;fillColor=#ACE8E1;" vertex="1" parent="1">
          <mxGeometry x="1434" y="-27" width="124" height="40" as="geometry" />
        </mxCell>
        <mxCell id="jN2Ao2LM-aUM4iMut1JE-198" value="&lt;p style=&quot;margin: 4px 0px 0px; text-align: center;&quot;&gt;&lt;strong style=&quot;&quot;&gt;Procedure Review&lt;/strong&gt;&lt;/p&gt;&lt;hr&gt;&lt;p style=&quot;margin: 0px; margin-left: 8px;&quot;&gt;&lt;br&gt;&lt;/p&gt;" style="verticalAlign=top;align=left;overflow=fill;fontSize=12;fontFamily=Helvetica;html=1;strokeColor=#d79b00;shadow=1;fillColor=#8DC2BB;" vertex="1" parent="1">
          <mxGeometry x="1434" y="70" width="124" height="40" as="geometry" />
        </mxCell>
        <mxCell id="jN2Ao2LM-aUM4iMut1JE-199" value="" style="endArrow=open;endSize=12;startArrow=diamondThin;startSize=14;startFill=0;edgeStyle=orthogonalEdgeStyle;labelBackgroundColor=default;entryX=0.5;entryY=1;entryDx=0;entryDy=0;exitX=0.5;exitY=0;exitDx=0;exitDy=0;" edge="1" source="jN2Ao2LM-aUM4iMut1JE-198" target="jN2Ao2LM-aUM4iMut1JE-197" parent="1">
          <mxGeometry x="620" y="340" as="geometry">
            <mxPoint x="684" y="163" as="sourcePoint" />
            <mxPoint x="684" y="93" as="targetPoint" />
          </mxGeometry>
        </mxCell>
        <mxCell id="jN2Ao2LM-aUM4iMut1JE-200" value="0..n" style="resizable=0;align=left;verticalAlign=top;labelBackgroundColor=none;fontSize=10;strokeColor=#003366;shadow=1;fillColor=#D4E1F5;fontColor=#003366" connectable="0" vertex="1" parent="jN2Ao2LM-aUM4iMut1JE-199">
          <mxGeometry x="-1" relative="1" as="geometry">
            <mxPoint x="9" y="-22" as="offset" />
          </mxGeometry>
        </mxCell>
        <mxCell id="jN2Ao2LM-aUM4iMut1JE-201" value="1" style="resizable=0;align=right;verticalAlign=top;labelBackgroundColor=none;fontSize=10;strokeColor=#003366;shadow=1;fillColor=#D4E1F5;fontColor=#003366" connectable="0" vertex="1" parent="jN2Ao2LM-aUM4iMut1JE-199">
          <mxGeometry x="1" relative="1" as="geometry">
            <mxPoint x="19" as="offset" />
          </mxGeometry>
        </mxCell>
        <mxCell id="jN2Ao2LM-aUM4iMut1JE-202" value="is review of" style="edgeLabel;html=1;align=center;verticalAlign=middle;resizable=0;points=[];labelBackgroundColor=none;" vertex="1" connectable="0" parent="jN2Ao2LM-aUM4iMut1JE-199">
          <mxGeometry relative="1" as="geometry">
            <mxPoint x="-1" as="offset" />
          </mxGeometry>
        </mxCell>
        <mxCell id="jN2Ao2LM-aUM4iMut1JE-203" value="&lt;p style=&quot;margin: 4px 0px 0px; text-align: center;&quot;&gt;&lt;strong style=&quot;&quot;&gt;Key Performance Indicator&lt;/strong&gt;&lt;/p&gt;&lt;hr&gt;&lt;p style=&quot;margin: 0px; margin-left: 8px;&quot;&gt;&lt;br&gt;&lt;/p&gt;" style="verticalAlign=top;align=left;overflow=fill;fontSize=12;fontFamily=Helvetica;html=1;strokeColor=#2D7600;shadow=1;fillColor=#009999;fontColor=#ffffff;" vertex="1" parent="1">
          <mxGeometry x="1569" y="-27" width="165" height="40" as="geometry" />
        </mxCell>
        <mxCell id="jN2Ao2LM-aUM4iMut1JE-204" value="&lt;p style=&quot;margin: 4px 0px 0px; text-align: center;&quot;&gt;&lt;strong style=&quot;&quot;&gt;Measurement&lt;/strong&gt;&lt;/p&gt;&lt;hr&gt;&lt;p style=&quot;margin: 0px; margin-left: 8px;&quot;&gt;&lt;br&gt;&lt;/p&gt;" style="verticalAlign=top;align=left;overflow=fill;fontSize=12;fontFamily=Helvetica;html=1;strokeColor=#6c8ebf;shadow=1;fillColor=#8FCBFC;" vertex="1" parent="1">
          <mxGeometry x="1587.5" y="70" width="126.5" height="40" as="geometry" />
        </mxCell>
        <mxCell id="jN2Ao2LM-aUM4iMut1JE-205" value="" style="endArrow=open;endSize=12;startArrow=diamondThin;startSize=14;startFill=0;edgeStyle=orthogonalEdgeStyle;labelBackgroundColor=default;entryX=0.5;entryY=1;entryDx=0;entryDy=0;exitX=0.5;exitY=0;exitDx=0;exitDy=0;" edge="1" source="jN2Ao2LM-aUM4iMut1JE-204" target="jN2Ao2LM-aUM4iMut1JE-203" parent="1">
          <mxGeometry x="620" y="340" as="geometry">
            <mxPoint x="710" y="223" as="sourcePoint" />
            <mxPoint x="582" y="203" as="targetPoint" />
          </mxGeometry>
        </mxCell>
        <mxCell id="jN2Ao2LM-aUM4iMut1JE-206" value="0..n" style="resizable=0;align=left;verticalAlign=top;labelBackgroundColor=none;fontSize=10;strokeColor=#003366;shadow=1;fillColor=#D4E1F5;fontColor=#003366" connectable="0" vertex="1" parent="jN2Ao2LM-aUM4iMut1JE-205">
          <mxGeometry x="-1" relative="1" as="geometry">
            <mxPoint x="8" y="-22" as="offset" />
          </mxGeometry>
        </mxCell>
        <mxCell id="jN2Ao2LM-aUM4iMut1JE-207" value="1" style="resizable=0;align=right;verticalAlign=top;labelBackgroundColor=none;fontSize=10;strokeColor=#003366;shadow=1;fillColor=#D4E1F5;fontColor=#003366" connectable="0" vertex="1" parent="jN2Ao2LM-aUM4iMut1JE-205">
          <mxGeometry x="1" relative="1" as="geometry">
            <mxPoint x="20" as="offset" />
          </mxGeometry>
        </mxCell>
        <mxCell id="jN2Ao2LM-aUM4iMut1JE-208" value="is measurement for" style="edgeLabel;html=1;align=center;verticalAlign=middle;resizable=0;points=[];labelBackgroundColor=none;" vertex="1" connectable="0" parent="jN2Ao2LM-aUM4iMut1JE-205">
          <mxGeometry relative="1" as="geometry">
            <mxPoint x="3" as="offset" />
          </mxGeometry>
        </mxCell>
        <mxCell id="jN2Ao2LM-aUM4iMut1JE-211" value="" style="endArrow=open;endSize=12;startArrow=diamondThin;startSize=14;startFill=0;edgeStyle=orthogonalEdgeStyle;labelBackgroundColor=default;entryX=1;entryY=0.5;entryDx=0;entryDy=0;exitX=0;exitY=0.5;exitDx=0;exitDy=0;" edge="1" parent="1" source="jN2Ao2LM-aUM4iMut1JE-195" target="jN2Ao2LM-aUM4iMut1JE-111">
          <mxGeometry x="620" y="340" as="geometry">
            <mxPoint x="852" y="279" as="sourcePoint" />
            <mxPoint x="852" y="222" as="targetPoint" />
          </mxGeometry>
        </mxCell>
        <mxCell id="jN2Ao2LM-aUM4iMut1JE-212" value="0..n" style="resizable=0;align=left;verticalAlign=top;labelBackgroundColor=none;fontSize=10;strokeColor=#003366;shadow=1;fillColor=#D4E1F5;fontColor=#003366" connectable="0" vertex="1" parent="jN2Ao2LM-aUM4iMut1JE-211">
          <mxGeometry x="-1" relative="1" as="geometry">
            <mxPoint x="-31" y="-30" as="offset" />
          </mxGeometry>
        </mxCell>
        <mxCell id="jN2Ao2LM-aUM4iMut1JE-213" value="1" style="resizable=0;align=right;verticalAlign=top;labelBackgroundColor=none;fontSize=10;strokeColor=#003366;shadow=1;fillColor=#D4E1F5;fontColor=#003366" connectable="0" vertex="1" parent="jN2Ao2LM-aUM4iMut1JE-211">
          <mxGeometry x="1" relative="1" as="geometry">
            <mxPoint x="21" y="-25" as="offset" />
          </mxGeometry>
        </mxCell>
        <mxCell id="jN2Ao2LM-aUM4iMut1JE-215" value="is review of" style="edgeLabel;html=1;align=center;verticalAlign=middle;resizable=0;points=[];labelBackgroundColor=none;" vertex="1" connectable="0" parent="jN2Ao2LM-aUM4iMut1JE-211">
          <mxGeometry relative="1" as="geometry">
            <mxPoint x="-444" y="-10" as="offset" />
          </mxGeometry>
        </mxCell>
        <mxCell id="jN2Ao2LM-aUM4iMut1JE-216" value="&lt;p style=&quot;margin: 4px 0px 0px; text-align: center;&quot;&gt;&lt;b&gt;Service&lt;/b&gt;&lt;/p&gt;&lt;hr&gt;&lt;p style=&quot;margin: 0px; margin-left: 8px;&quot;&gt;&lt;br&gt;&lt;/p&gt;" style="verticalAlign=top;align=left;overflow=fill;fontSize=12;fontFamily=Helvetica;html=1;strokeColor=#B85450;shadow=1;fillColor=#F8CECC;" vertex="1" parent="1">
          <mxGeometry x="1610" y="346" width="120" height="40" as="geometry" />
        </mxCell>
        <mxCell id="jN2Ao2LM-aUM4iMut1JE-217" value="&lt;p style=&quot;margin: 4px 0px 0px; text-align: center;&quot;&gt;&lt;strong style=&quot;&quot;&gt;Dataset&lt;/strong&gt;&lt;/p&gt;&lt;hr&gt;&lt;p style=&quot;margin: 0px; margin-left: 8px;&quot;&gt;&lt;br&gt;&lt;/p&gt;" style="verticalAlign=top;align=left;overflow=fill;fontSize=12;fontFamily=Helvetica;html=1;strokeColor=#82B366;shadow=1;fillColor=#D5E8D4;" vertex="1" parent="1">
          <mxGeometry x="1480" y="346" width="120" height="40" as="geometry" />
        </mxCell>
        <mxCell id="jN2Ao2LM-aUM4iMut1JE-218" value="" style="endArrow=open;endSize=12;startArrow=diamondThin;startSize=14;startFill=0;edgeStyle=orthogonalEdgeStyle;labelBackgroundColor=default;entryX=1;entryY=0.75;entryDx=0;entryDy=0;exitX=0.25;exitY=0;exitDx=0;exitDy=0;" edge="1" parent="1" source="jN2Ao2LM-aUM4iMut1JE-217" target="y1ez__rVfO7GERN6JN9X-213">
          <mxGeometry x="1319" y="-93" as="geometry">
            <mxPoint x="939" y="80" as="sourcePoint" />
            <mxPoint x="849" y="27" as="targetPoint" />
            <Array as="points">
              <mxPoint x="1510" y="320" />
              <mxPoint x="1360" y="320" />
              <mxPoint x="1360" y="3" />
            </Array>
          </mxGeometry>
        </mxCell>
        <mxCell id="jN2Ao2LM-aUM4iMut1JE-219" value="0..n" style="resizable=0;align=left;verticalAlign=top;labelBackgroundColor=none;fontSize=10;strokeColor=#003366;shadow=1;fillColor=#D4E1F5;fontColor=#003366" connectable="0" vertex="1" parent="jN2Ao2LM-aUM4iMut1JE-218">
          <mxGeometry x="-1" relative="1" as="geometry">
            <mxPoint x="-30" y="-24" as="offset" />
          </mxGeometry>
        </mxCell>
        <mxCell id="jN2Ao2LM-aUM4iMut1JE-220" value="1+" style="resizable=0;align=right;verticalAlign=top;labelBackgroundColor=none;fontSize=10;strokeColor=#003366;shadow=1;fillColor=#D4E1F5;fontColor=#003366" connectable="0" vertex="1" parent="jN2Ao2LM-aUM4iMut1JE-218">
          <mxGeometry x="1" relative="1" as="geometry">
            <mxPoint x="31" y="-3" as="offset" />
          </mxGeometry>
        </mxCell>
        <mxCell id="jN2Ao2LM-aUM4iMut1JE-221" value="relates to" style="edgeLabel;html=1;align=center;verticalAlign=middle;resizable=0;points=[];labelBackgroundColor=none;" vertex="1" connectable="0" parent="jN2Ao2LM-aUM4iMut1JE-218">
          <mxGeometry relative="1" as="geometry">
            <mxPoint x="80" y="263" as="offset" />
          </mxGeometry>
        </mxCell>
        <mxCell id="jN2Ao2LM-aUM4iMut1JE-222" value="relates to" style="edgeLabel;html=1;align=center;verticalAlign=middle;resizable=0;points=[];labelBackgroundColor=none;" vertex="1" connectable="0" parent="jN2Ao2LM-aUM4iMut1JE-218">
          <mxGeometry relative="1" as="geometry">
            <mxPoint x="-150" y="-57" as="offset" />
          </mxGeometry>
        </mxCell>
        <mxCell id="25" value="&lt;p style=&quot;margin: 4px 0px 0px; text-align: center;&quot;&gt;&lt;strong style=&quot;&quot;&gt;Process Review&lt;/strong&gt;&lt;/p&gt;&lt;hr&gt;&lt;p style=&quot;margin: 0px; margin-left: 8px;&quot;&gt;&lt;br&gt;&lt;/p&gt;" style="verticalAlign=top;align=left;overflow=fill;fontSize=12;fontFamily=Helvetica;html=1;strokeColor=#d6b656;shadow=1;fillColor=#fff2cc;" parent="1" vertex="1">
          <mxGeometry x="793.75" y="-337" width="124" height="40" as="geometry" />
        </mxCell>
        <mxCell id="y1ez__rVfO7GERN6JN9X-169" value="&lt;p style=&quot;margin: 4px 0px 0px; text-align: center;&quot;&gt;&lt;strong style=&quot;&quot;&gt;Procedure&lt;/strong&gt;&lt;/p&gt;&lt;hr&gt;&lt;p style=&quot;margin: 0px; margin-left: 8px;&quot;&gt;&lt;br&gt;&lt;/p&gt;" style="verticalAlign=top;align=left;overflow=fill;fontSize=12;fontFamily=Helvetica;html=1;strokeColor=#82b366;shadow=1;fillColor=#ACE8E1;" parent="1" vertex="1">
          <mxGeometry x="793.75" y="-497" width="124" height="40" as="geometry" />
        </mxCell>
        <mxCell id="y1ez__rVfO7GERN6JN9X-170" value="&lt;p style=&quot;margin: 4px 0px 0px; text-align: center;&quot;&gt;&lt;strong style=&quot;&quot;&gt;Procedure Review&lt;/strong&gt;&lt;/p&gt;&lt;hr&gt;&lt;p style=&quot;margin: 0px; margin-left: 8px;&quot;&gt;&lt;br&gt;&lt;/p&gt;" style="verticalAlign=top;align=left;overflow=fill;fontSize=12;fontFamily=Helvetica;html=1;strokeColor=#d79b00;shadow=1;fillColor=#8DC2BB;" parent="1" vertex="1">
          <mxGeometry x="793.75" y="-400" width="124" height="40" as="geometry" />
        </mxCell>
        <mxCell id="y1ez__rVfO7GERN6JN9X-171" value="&lt;p style=&quot;margin: 4px 0px 0px; text-align: center;&quot;&gt;&lt;strong style=&quot;&quot;&gt;Key Performance Indicator&lt;/strong&gt;&lt;/p&gt;&lt;hr&gt;&lt;p style=&quot;margin: 0px; margin-left: 8px;&quot;&gt;&lt;br&gt;&lt;/p&gt;" style="verticalAlign=top;align=left;overflow=fill;fontSize=12;fontFamily=Helvetica;html=1;strokeColor=#2D7600;shadow=1;fillColor=#009999;fontColor=#ffffff;" parent="1" vertex="1">
          <mxGeometry x="929.25" y="-497" width="165" height="40" as="geometry" />
        </mxCell>
        <mxCell id="y1ez__rVfO7GERN6JN9X-172" value="&lt;p style=&quot;margin: 4px 0px 0px; text-align: center;&quot;&gt;&lt;strong style=&quot;&quot;&gt;Measurement&lt;/strong&gt;&lt;/p&gt;&lt;hr&gt;&lt;p style=&quot;margin: 0px; margin-left: 8px;&quot;&gt;&lt;br&gt;&lt;/p&gt;" style="verticalAlign=top;align=left;overflow=fill;fontSize=12;fontFamily=Helvetica;html=1;strokeColor=#6c8ebf;shadow=1;fillColor=#8FCBFC;" parent="1" vertex="1">
          <mxGeometry x="947.75" y="-400" width="126.5" height="40" as="geometry" />
        </mxCell>
        <mxCell id="y1ez__rVfO7GERN6JN9X-173" value="" style="endArrow=open;endSize=12;startArrow=diamondThin;startSize=14;startFill=0;edgeStyle=orthogonalEdgeStyle;labelBackgroundColor=default;entryX=0.5;entryY=1;entryDx=0;entryDy=0;exitX=0.5;exitY=0;exitDx=0;exitDy=0;" parent="1" source="y1ez__rVfO7GERN6JN9X-172" target="y1ez__rVfO7GERN6JN9X-171" edge="1">
          <mxGeometry x="1359" y="-200" as="geometry">
            <mxPoint x="70.25" y="-247" as="sourcePoint" />
            <mxPoint x="-57.75" y="-267" as="targetPoint" />
          </mxGeometry>
        </mxCell>
        <mxCell id="y1ez__rVfO7GERN6JN9X-174" value="0..n" style="resizable=0;align=left;verticalAlign=top;labelBackgroundColor=none;fontSize=10;strokeColor=#003366;shadow=1;fillColor=#D4E1F5;fontColor=#003366" parent="y1ez__rVfO7GERN6JN9X-173" connectable="0" vertex="1">
          <mxGeometry x="-1" relative="1" as="geometry">
            <mxPoint x="8" y="-22" as="offset" />
          </mxGeometry>
        </mxCell>
        <mxCell id="y1ez__rVfO7GERN6JN9X-175" value="1" style="resizable=0;align=right;verticalAlign=top;labelBackgroundColor=none;fontSize=10;strokeColor=#003366;shadow=1;fillColor=#D4E1F5;fontColor=#003366" parent="y1ez__rVfO7GERN6JN9X-173" connectable="0" vertex="1">
          <mxGeometry x="1" relative="1" as="geometry">
            <mxPoint x="20" as="offset" />
          </mxGeometry>
        </mxCell>
        <mxCell id="y1ez__rVfO7GERN6JN9X-176" value="is measurement for" style="edgeLabel;html=1;align=center;verticalAlign=middle;resizable=0;points=[];labelBackgroundColor=none;" parent="y1ez__rVfO7GERN6JN9X-173" vertex="1" connectable="0">
          <mxGeometry relative="1" as="geometry">
            <mxPoint x="3" as="offset" />
          </mxGeometry>
        </mxCell>
        <mxCell id="y1ez__rVfO7GERN6JN9X-177" value="" style="endArrow=open;endSize=12;startArrow=diamondThin;startSize=14;startFill=0;edgeStyle=orthogonalEdgeStyle;labelBackgroundColor=default;entryX=0.5;entryY=1;entryDx=0;entryDy=0;exitX=0.5;exitY=0;exitDx=0;exitDy=0;" parent="1" source="y1ez__rVfO7GERN6JN9X-170" target="y1ez__rVfO7GERN6JN9X-169" edge="1">
          <mxGeometry x="1359" y="-200" as="geometry">
            <mxPoint x="43.75" y="-307" as="sourcePoint" />
            <mxPoint x="43.75" y="-377" as="targetPoint" />
          </mxGeometry>
        </mxCell>
        <mxCell id="y1ez__rVfO7GERN6JN9X-178" value="0..n" style="resizable=0;align=left;verticalAlign=top;labelBackgroundColor=none;fontSize=10;strokeColor=#003366;shadow=1;fillColor=#D4E1F5;fontColor=#003366" parent="y1ez__rVfO7GERN6JN9X-177" connectable="0" vertex="1">
          <mxGeometry x="-1" relative="1" as="geometry">
            <mxPoint x="9" y="-22" as="offset" />
          </mxGeometry>
        </mxCell>
        <mxCell id="y1ez__rVfO7GERN6JN9X-179" value="1" style="resizable=0;align=right;verticalAlign=top;labelBackgroundColor=none;fontSize=10;strokeColor=#003366;shadow=1;fillColor=#D4E1F5;fontColor=#003366" parent="y1ez__rVfO7GERN6JN9X-177" connectable="0" vertex="1">
          <mxGeometry x="1" relative="1" as="geometry">
            <mxPoint x="19" as="offset" />
          </mxGeometry>
        </mxCell>
        <mxCell id="y1ez__rVfO7GERN6JN9X-180" value="is review of" style="edgeLabel;html=1;align=center;verticalAlign=middle;resizable=0;points=[];labelBackgroundColor=none;" parent="y1ez__rVfO7GERN6JN9X-177" vertex="1" connectable="0">
          <mxGeometry relative="1" as="geometry">
            <mxPoint x="-1" as="offset" />
          </mxGeometry>
        </mxCell>
        <mxCell id="y1ez__rVfO7GERN6JN9X-187" value="&lt;p style=&quot;margin: 4px 0px 0px; text-align: center;&quot;&gt;&lt;strong style=&quot;&quot;&gt;Customer&lt;/strong&gt;&lt;/p&gt;&lt;hr&gt;&lt;p style=&quot;margin: 0px; margin-left: 8px;&quot;&gt;&lt;br&gt;&lt;/p&gt;" style="verticalAlign=top;align=left;overflow=fill;fontSize=12;fontFamily=Helvetica;html=1;strokeColor=#b85450;shadow=1;fillColor=#f8cecc;" parent="1" vertex="1">
          <mxGeometry x="974.75" y="-237" width="120" height="40" as="geometry" />
        </mxCell>
        <mxCell id="y1ez__rVfO7GERN6JN9X-188" value="&lt;p style=&quot;margin: 4px 0px 0px; text-align: center;&quot;&gt;&lt;strong style=&quot;&quot;&gt;Contact&lt;/strong&gt;&lt;/p&gt;&lt;hr&gt;&lt;p style=&quot;margin: 0px; margin-left: 8px;&quot;&gt;&lt;br&gt;&lt;/p&gt;" style="verticalAlign=top;align=left;overflow=fill;fontSize=12;fontFamily=Helvetica;html=1;strokeColor=#82b366;shadow=1;fillColor=#d5e8d4;" parent="1" vertex="1">
          <mxGeometry x="794.75" y="-277" width="120" height="40" as="geometry" />
        </mxCell>
        <mxCell id="y1ez__rVfO7GERN6JN9X-189" value="" style="endArrow=open;endSize=12;startArrow=diamondThin;startSize=14;startFill=0;edgeStyle=orthogonalEdgeStyle;labelBackgroundColor=default;entryX=0.25;entryY=0;entryDx=0;entryDy=0;exitX=1;exitY=0.5;exitDx=0;exitDy=0;" parent="1" source="y1ez__rVfO7GERN6JN9X-188" target="y1ez__rVfO7GERN6JN9X-187" edge="1">
          <mxGeometry x="1359" y="-200" as="geometry">
            <mxPoint x="826.75" y="-390" as="sourcePoint" />
            <mxPoint x="826.75" y="-447" as="targetPoint" />
          </mxGeometry>
        </mxCell>
        <mxCell id="y1ez__rVfO7GERN6JN9X-190" value="0..n" style="resizable=0;align=left;verticalAlign=top;labelBackgroundColor=none;fontSize=10;strokeColor=#003366;shadow=1;fillColor=#D4E1F5;fontColor=#003366" parent="y1ez__rVfO7GERN6JN9X-189" connectable="0" vertex="1">
          <mxGeometry x="-1" relative="1" as="geometry">
            <mxPoint x="9" as="offset" />
          </mxGeometry>
        </mxCell>
        <mxCell id="y1ez__rVfO7GERN6JN9X-191" value="1+" style="resizable=0;align=right;verticalAlign=top;labelBackgroundColor=none;fontSize=10;strokeColor=#003366;shadow=1;fillColor=#D4E1F5;fontColor=#003366" parent="y1ez__rVfO7GERN6JN9X-189" connectable="0" vertex="1">
          <mxGeometry x="1" relative="1" as="geometry">
            <mxPoint x="19" y="-30" as="offset" />
          </mxGeometry>
        </mxCell>
        <mxCell id="y1ez__rVfO7GERN6JN9X-192" value="is contact for" style="edgeLabel;html=1;align=center;verticalAlign=middle;resizable=0;points=[];labelBackgroundColor=none;" parent="y1ez__rVfO7GERN6JN9X-189" vertex="1" connectable="0">
          <mxGeometry relative="1" as="geometry">
            <mxPoint x="-1" y="-10" as="offset" />
          </mxGeometry>
        </mxCell>
        <mxCell id="y1ez__rVfO7GERN6JN9X-193" value="&lt;p style=&quot;margin: 4px 0px 0px; text-align: center;&quot;&gt;&lt;strong style=&quot;&quot;&gt;Complaint&lt;/strong&gt;&lt;/p&gt;&lt;hr&gt;&lt;p style=&quot;margin: 0px; margin-left: 8px;&quot;&gt;&lt;br&gt;&lt;/p&gt;" style="verticalAlign=top;align=left;overflow=fill;fontSize=12;fontFamily=Helvetica;html=1;strokeColor=#d79b00;shadow=1;fillColor=#ffe6cc;" parent="1" vertex="1">
          <mxGeometry x="1094.25" y="-337" width="120" height="40" as="geometry" />
        </mxCell>
        <mxCell id="y1ez__rVfO7GERN6JN9X-194" value="" style="endArrow=open;endSize=12;startArrow=diamondThin;startSize=14;startFill=0;edgeStyle=orthogonalEdgeStyle;labelBackgroundColor=default;entryX=0.75;entryY=0;entryDx=0;entryDy=0;exitX=0.5;exitY=1;exitDx=0;exitDy=0;" parent="1" source="y1ez__rVfO7GERN6JN9X-193" target="y1ez__rVfO7GERN6JN9X-187" edge="1">
          <mxGeometry x="1359" y="-200" as="geometry">
            <mxPoint x="1214.75" y="-310" as="sourcePoint" />
            <mxPoint x="1114.75" y="-203" as="targetPoint" />
          </mxGeometry>
        </mxCell>
        <mxCell id="y1ez__rVfO7GERN6JN9X-195" value="0..n" style="resizable=0;align=left;verticalAlign=top;labelBackgroundColor=none;fontSize=10;strokeColor=#003366;shadow=1;fillColor=#D4E1F5;fontColor=#003366" parent="y1ez__rVfO7GERN6JN9X-194" connectable="0" vertex="1">
          <mxGeometry x="-1" relative="1" as="geometry">
            <mxPoint x="9" as="offset" />
          </mxGeometry>
        </mxCell>
        <mxCell id="y1ez__rVfO7GERN6JN9X-196" value="1" style="resizable=0;align=right;verticalAlign=top;labelBackgroundColor=none;fontSize=10;strokeColor=#003366;shadow=1;fillColor=#D4E1F5;fontColor=#003366" parent="y1ez__rVfO7GERN6JN9X-194" connectable="0" vertex="1">
          <mxGeometry x="1" relative="1" as="geometry">
            <mxPoint x="19" y="-30" as="offset" />
          </mxGeometry>
        </mxCell>
        <mxCell id="y1ez__rVfO7GERN6JN9X-197" value="is complaint from" style="edgeLabel;html=1;align=center;verticalAlign=middle;resizable=0;points=[];labelBackgroundColor=none;" parent="y1ez__rVfO7GERN6JN9X-194" vertex="1" connectable="0">
          <mxGeometry relative="1" as="geometry">
            <mxPoint x="-13" y="-10" as="offset" />
          </mxGeometry>
        </mxCell>
        <mxCell id="y1ez__rVfO7GERN6JN9X-198" value="&lt;p style=&quot;margin: 4px 0px 0px; text-align: center;&quot;&gt;&lt;strong style=&quot;&quot;&gt;Project&lt;/strong&gt;&lt;/p&gt;&lt;hr&gt;&lt;p style=&quot;margin: 0px; margin-left: 8px;&quot;&gt;&lt;br&gt;&lt;/p&gt;" style="verticalAlign=top;align=left;overflow=fill;fontSize=12;fontFamily=Helvetica;html=1;strokeColor=#82b366;shadow=1;fillColor=#CCFFFF;" parent="1" vertex="1">
          <mxGeometry x="1055.25" y="-148" width="120" height="40" as="geometry" />
        </mxCell>
        <mxCell id="y1ez__rVfO7GERN6JN9X-199" value="" style="endArrow=open;endSize=12;startArrow=diamondThin;startSize=14;startFill=0;edgeStyle=orthogonalEdgeStyle;labelBackgroundColor=default;entryX=0.5;entryY=1;entryDx=0;entryDy=0;exitX=0.5;exitY=0;exitDx=0;exitDy=0;" parent="1" source="y1ez__rVfO7GERN6JN9X-198" target="y1ez__rVfO7GERN6JN9X-187" edge="1">
          <mxGeometry x="1359" y="-200" as="geometry">
            <mxPoint x="1020.75" y="-287" as="sourcePoint" />
            <mxPoint x="1094.75" y="-197" as="targetPoint" />
          </mxGeometry>
        </mxCell>
        <mxCell id="y1ez__rVfO7GERN6JN9X-200" value="0..n" style="resizable=0;align=left;verticalAlign=top;labelBackgroundColor=none;fontSize=10;strokeColor=#003366;shadow=1;fillColor=#D4E1F5;fontColor=#003366" parent="y1ez__rVfO7GERN6JN9X-199" connectable="0" vertex="1">
          <mxGeometry x="-1" relative="1" as="geometry">
            <mxPoint x="7" y="-24" as="offset" />
          </mxGeometry>
        </mxCell>
        <mxCell id="y1ez__rVfO7GERN6JN9X-201" value="1+" style="resizable=0;align=right;verticalAlign=top;labelBackgroundColor=none;fontSize=10;strokeColor=#003366;shadow=1;fillColor=#D4E1F5;fontColor=#003366" parent="y1ez__rVfO7GERN6JN9X-199" connectable="0" vertex="1">
          <mxGeometry x="1" relative="1" as="geometry">
            <mxPoint x="-12" y="1" as="offset" />
          </mxGeometry>
        </mxCell>
        <mxCell id="y1ez__rVfO7GERN6JN9X-202" value="is project of" style="edgeLabel;html=1;align=center;verticalAlign=middle;resizable=0;points=[];labelBackgroundColor=none;" parent="y1ez__rVfO7GERN6JN9X-199" vertex="1" connectable="0">
          <mxGeometry relative="1" as="geometry">
            <mxPoint x="-1" y="-10" as="offset" />
          </mxGeometry>
        </mxCell>
        <mxCell id="y1ez__rVfO7GERN6JN9X-203" value="&lt;p style=&quot;margin: 4px 0px 0px; text-align: center;&quot;&gt;&lt;strong style=&quot;&quot;&gt;Use Case&lt;/strong&gt;&lt;/p&gt;&lt;hr&gt;&lt;p style=&quot;margin: 0px; margin-left: 8px;&quot;&gt;&lt;br&gt;&lt;/p&gt;" style="verticalAlign=top;align=left;overflow=fill;fontSize=12;fontFamily=Helvetica;html=1;strokeColor=#82b366;shadow=1;fillColor=#E6FFCC;" parent="1" vertex="1">
          <mxGeometry x="1115.75" y="-64" width="120" height="40" as="geometry" />
        </mxCell>
        <mxCell id="y1ez__rVfO7GERN6JN9X-204" value="" style="endArrow=open;endSize=12;startArrow=diamondThin;startSize=14;startFill=0;edgeStyle=orthogonalEdgeStyle;labelBackgroundColor=default;entryX=0.5;entryY=1;entryDx=0;entryDy=0;exitX=0.5;exitY=0;exitDx=0;exitDy=0;" parent="1" source="y1ez__rVfO7GERN6JN9X-203" target="y1ez__rVfO7GERN6JN9X-198" edge="1">
          <mxGeometry x="1359" y="-200" as="geometry">
            <mxPoint x="1214.75" y="-107" as="sourcePoint" />
            <mxPoint x="1094.75" y="-157" as="targetPoint" />
          </mxGeometry>
        </mxCell>
        <mxCell id="y1ez__rVfO7GERN6JN9X-205" value="0..n" style="resizable=0;align=left;verticalAlign=top;labelBackgroundColor=none;fontSize=10;strokeColor=#003366;shadow=1;fillColor=#D4E1F5;fontColor=#003366" parent="y1ez__rVfO7GERN6JN9X-204" connectable="0" vertex="1">
          <mxGeometry x="-1" relative="1" as="geometry">
            <mxPoint x="7" y="-24" as="offset" />
          </mxGeometry>
        </mxCell>
        <mxCell id="y1ez__rVfO7GERN6JN9X-206" value="1+" style="resizable=0;align=right;verticalAlign=top;labelBackgroundColor=none;fontSize=10;strokeColor=#003366;shadow=1;fillColor=#D4E1F5;fontColor=#003366" parent="y1ez__rVfO7GERN6JN9X-204" connectable="0" vertex="1">
          <mxGeometry x="1" relative="1" as="geometry">
            <mxPoint x="-14" y="1" as="offset" />
          </mxGeometry>
        </mxCell>
        <mxCell id="y1ez__rVfO7GERN6JN9X-207" value="is use case for" style="edgeLabel;html=1;align=center;verticalAlign=middle;resizable=0;points=[];labelBackgroundColor=none;" parent="y1ez__rVfO7GERN6JN9X-204" vertex="1" connectable="0">
          <mxGeometry relative="1" as="geometry">
            <mxPoint x="20" y="-10" as="offset" />
          </mxGeometry>
        </mxCell>
        <mxCell id="y1ez__rVfO7GERN6JN9X-208" value="&lt;p style=&quot;margin: 4px 0px 0px; text-align: center;&quot;&gt;&lt;strong style=&quot;&quot;&gt;Customer Satisfaction Review&lt;/strong&gt;&lt;/p&gt;&lt;hr&gt;&lt;p style=&quot;margin: 0px; margin-left: 8px;&quot;&gt;&lt;br&gt;&lt;/p&gt;" style="verticalAlign=top;align=left;overflow=fill;fontSize=12;fontFamily=Helvetica;html=1;strokeColor=#d6b656;shadow=1;fillColor=#fff2cc;" parent="1" vertex="1">
          <mxGeometry x="835.25" y="-127" width="200" height="40" as="geometry" />
        </mxCell>
        <mxCell id="y1ez__rVfO7GERN6JN9X-209" value="" style="endArrow=open;endSize=12;startArrow=diamondThin;startSize=14;startFill=0;edgeStyle=orthogonalEdgeStyle;labelBackgroundColor=default;entryX=0;entryY=0.5;entryDx=0;entryDy=0;exitX=0.5;exitY=0;exitDx=0;exitDy=0;" parent="1" source="y1ez__rVfO7GERN6JN9X-208" target="y1ez__rVfO7GERN6JN9X-187" edge="1">
          <mxGeometry x="1359" y="-200" as="geometry">
            <mxPoint x="924.75" y="-247" as="sourcePoint" />
            <mxPoint x="1014.75" y="-207" as="targetPoint" />
          </mxGeometry>
        </mxCell>
        <mxCell id="y1ez__rVfO7GERN6JN9X-210" value="0..n" style="resizable=0;align=left;verticalAlign=top;labelBackgroundColor=none;fontSize=10;strokeColor=#003366;shadow=1;fillColor=#D4E1F5;fontColor=#003366" parent="y1ez__rVfO7GERN6JN9X-209" connectable="0" vertex="1">
          <mxGeometry x="-1" relative="1" as="geometry">
            <mxPoint x="13" y="-25" as="offset" />
          </mxGeometry>
        </mxCell>
        <mxCell id="y1ez__rVfO7GERN6JN9X-211" value="1" style="resizable=0;align=right;verticalAlign=top;labelBackgroundColor=none;fontSize=10;strokeColor=#003366;shadow=1;fillColor=#D4E1F5;fontColor=#003366" parent="y1ez__rVfO7GERN6JN9X-209" connectable="0" vertex="1">
          <mxGeometry x="1" relative="1" as="geometry">
            <mxPoint x="-21" as="offset" />
          </mxGeometry>
        </mxCell>
        <mxCell id="y1ez__rVfO7GERN6JN9X-212" value="is review for" style="edgeLabel;html=1;align=center;verticalAlign=middle;resizable=0;points=[];labelBackgroundColor=none;" parent="y1ez__rVfO7GERN6JN9X-209" vertex="1" connectable="0">
          <mxGeometry relative="1" as="geometry">
            <mxPoint x="2" y="18" as="offset" />
          </mxGeometry>
        </mxCell>
        <mxCell id="y1ez__rVfO7GERN6JN9X-213" value="&lt;p style=&quot;margin: 4px 0px 0px; text-align: center;&quot;&gt;&lt;strong style=&quot;&quot;&gt;Achievement&lt;/strong&gt;&lt;/p&gt;&lt;hr&gt;&lt;p style=&quot;margin: 0px; margin-left: 8px;&quot;&gt;&lt;br&gt;&lt;/p&gt;" style="verticalAlign=top;align=left;overflow=fill;fontSize=12;fontFamily=Helvetica;html=1;strokeColor=#3700CC;shadow=1;fillColor=light-dark(#E5CCFF,#CC99FF);fontColor=default;" parent="1" vertex="1">
          <mxGeometry x="875.25" y="-27" width="120" height="40" as="geometry" />
        </mxCell>
        <mxCell id="y1ez__rVfO7GERN6JN9X-214" value="&lt;p style=&quot;margin: 4px 0px 0px; text-align: center;&quot;&gt;&lt;strong style=&quot;&quot;&gt;Publication&lt;/strong&gt;&lt;/p&gt;&lt;hr&gt;&lt;p style=&quot;margin: 0px; margin-left: 8px;&quot;&gt;&lt;br&gt;&lt;/p&gt;" style="verticalAlign=top;align=left;overflow=fill;fontSize=12;fontFamily=Helvetica;html=1;strokeColor=#9673a6;shadow=1;fillColor=#e1d5e7;" parent="1" vertex="1">
          <mxGeometry x="844.75" y="70" width="120" height="40" as="geometry" />
        </mxCell>
        <mxCell id="y1ez__rVfO7GERN6JN9X-215" value="" style="endArrow=open;endSize=12;startArrow=diamondThin;startSize=14;startFill=0;edgeStyle=orthogonalEdgeStyle;labelBackgroundColor=default;entryX=0.5;entryY=1;entryDx=0;entryDy=0;exitX=0.5;exitY=0;exitDx=0;exitDy=0;" parent="1" source="y1ez__rVfO7GERN6JN9X-213" target="y1ez__rVfO7GERN6JN9X-208" edge="1">
          <mxGeometry x="1359" y="-200" as="geometry">
            <mxPoint x="1140.75" y="-117" as="sourcePoint" />
            <mxPoint x="1044.75" y="-167" as="targetPoint" />
          </mxGeometry>
        </mxCell>
        <mxCell id="y1ez__rVfO7GERN6JN9X-216" value="0..n" style="resizable=0;align=left;verticalAlign=top;labelBackgroundColor=none;fontSize=10;strokeColor=#003366;shadow=1;fillColor=#D4E1F5;fontColor=#003366" parent="y1ez__rVfO7GERN6JN9X-215" connectable="0" vertex="1">
          <mxGeometry x="-1" relative="1" as="geometry">
            <mxPoint x="7" y="-24" as="offset" />
          </mxGeometry>
        </mxCell>
        <mxCell id="y1ez__rVfO7GERN6JN9X-217" value="1" style="resizable=0;align=right;verticalAlign=top;labelBackgroundColor=none;fontSize=10;strokeColor=#003366;shadow=1;fillColor=#D4E1F5;fontColor=#003366" parent="y1ez__rVfO7GERN6JN9X-215" connectable="0" vertex="1">
          <mxGeometry x="1" relative="1" as="geometry">
            <mxPoint x="20" y="1" as="offset" />
          </mxGeometry>
        </mxCell>
        <mxCell id="y1ez__rVfO7GERN6JN9X-218" value="is achievement for" style="edgeLabel;html=1;align=center;verticalAlign=middle;resizable=0;points=[];labelBackgroundColor=none;" parent="y1ez__rVfO7GERN6JN9X-215" vertex="1" connectable="0">
          <mxGeometry relative="1" as="geometry">
            <mxPoint x="3" y="-1" as="offset" />
          </mxGeometry>
        </mxCell>
        <mxCell id="y1ez__rVfO7GERN6JN9X-219" value="" style="endArrow=open;endSize=12;startArrow=diamondThin;startSize=14;startFill=0;edgeStyle=orthogonalEdgeStyle;labelBackgroundColor=default;entryX=0.5;entryY=1;entryDx=0;entryDy=0;exitX=0.75;exitY=0;exitDx=0;exitDy=0;" parent="1" source="y1ez__rVfO7GERN6JN9X-214" target="y1ez__rVfO7GERN6JN9X-213" edge="1">
          <mxGeometry x="1359" y="-200" as="geometry">
            <mxPoint x="1234.75" y="-32" as="sourcePoint" />
            <mxPoint x="1140.75" y="-77" as="targetPoint" />
          </mxGeometry>
        </mxCell>
        <mxCell id="y1ez__rVfO7GERN6JN9X-220" value="0..n" style="resizable=0;align=left;verticalAlign=top;labelBackgroundColor=none;fontSize=10;strokeColor=#003366;shadow=1;fillColor=#D4E1F5;fontColor=#003366" parent="y1ez__rVfO7GERN6JN9X-219" connectable="0" vertex="1">
          <mxGeometry x="-1" relative="1" as="geometry">
            <mxPoint x="7" y="-24" as="offset" />
          </mxGeometry>
        </mxCell>
        <mxCell id="y1ez__rVfO7GERN6JN9X-221" value="1+" style="resizable=0;align=right;verticalAlign=top;labelBackgroundColor=none;fontSize=10;strokeColor=#003366;shadow=1;fillColor=#D4E1F5;fontColor=#003366" parent="y1ez__rVfO7GERN6JN9X-219" connectable="0" vertex="1">
          <mxGeometry x="1" relative="1" as="geometry">
            <mxPoint x="-14" y="1" as="offset" />
          </mxGeometry>
        </mxCell>
        <mxCell id="y1ez__rVfO7GERN6JN9X-222" value="relates to" style="edgeLabel;html=1;align=center;verticalAlign=middle;resizable=0;points=[];labelBackgroundColor=none;" parent="y1ez__rVfO7GERN6JN9X-219" vertex="1" connectable="0">
          <mxGeometry relative="1" as="geometry">
            <mxPoint x="-1" y="1" as="offset" />
          </mxGeometry>
        </mxCell>
        <mxCell id="y1ez__rVfO7GERN6JN9X-223" value="" style="endArrow=open;endSize=12;startArrow=diamondThin;startSize=14;startFill=0;edgeStyle=orthogonalEdgeStyle;labelBackgroundColor=default;exitX=0.25;exitY=1;exitDx=0;exitDy=0;entryX=0;entryY=0.5;entryDx=0;entryDy=0;" parent="1" source="y1ez__rVfO7GERN6JN9X-188" target="y1ez__rVfO7GERN6JN9X-213" edge="1">
          <mxGeometry x="1359" y="-200" as="geometry">
            <mxPoint x="914.75" y="73" as="sourcePoint" />
            <mxPoint x="844.75" y="20" as="targetPoint" />
            <Array as="points" />
          </mxGeometry>
        </mxCell>
        <mxCell id="y1ez__rVfO7GERN6JN9X-224" value="0..n" style="resizable=0;align=left;verticalAlign=top;labelBackgroundColor=none;fontSize=10;strokeColor=#003366;shadow=1;fillColor=#D4E1F5;fontColor=#003366" parent="y1ez__rVfO7GERN6JN9X-223" connectable="0" vertex="1">
          <mxGeometry x="-1" relative="1" as="geometry">
            <mxPoint x="-30" as="offset" />
          </mxGeometry>
        </mxCell>
        <mxCell id="y1ez__rVfO7GERN6JN9X-225" value="1+" style="resizable=0;align=right;verticalAlign=top;labelBackgroundColor=none;fontSize=10;strokeColor=#003366;shadow=1;fillColor=#D4E1F5;fontColor=#003366" parent="y1ez__rVfO7GERN6JN9X-223" connectable="0" vertex="1">
          <mxGeometry x="1" relative="1" as="geometry">
            <mxPoint x="-24" y="-23" as="offset" />
          </mxGeometry>
        </mxCell>
        <mxCell id="y1ez__rVfO7GERN6JN9X-226" value="relates to" style="edgeLabel;html=1;align=center;verticalAlign=middle;resizable=0;points=[];labelBackgroundColor=none;" parent="y1ez__rVfO7GERN6JN9X-223" vertex="1" connectable="0">
          <mxGeometry relative="1" as="geometry">
            <mxPoint x="1" y="37" as="offset" />
          </mxGeometry>
        </mxCell>
        <mxCell id="y1ez__rVfO7GERN6JN9X-227" value="&lt;p style=&quot;margin: 4px 0px 0px; text-align: center;&quot;&gt;&lt;strong style=&quot;&quot;&gt;Customer Database Review&lt;/strong&gt;&lt;/p&gt;&lt;hr&gt;&lt;p style=&quot;margin: 0px; margin-left: 8px;&quot;&gt;&lt;br&gt;&lt;/p&gt;" style="verticalAlign=top;align=left;overflow=fill;fontSize=12;fontFamily=Helvetica;html=1;strokeColor=#6c8ebf;shadow=1;fillColor=#dae8fc;" parent="1" vertex="1">
          <mxGeometry x="983.75" y="70" width="200" height="40" as="geometry" />
        </mxCell>
        <mxCell id="jN2Ao2LM-aUM4iMut1JE-223" value="Service Level Management" style="rounded=1;whiteSpace=wrap;html=1;fillColor=#F9EBFF;strokeColor=#9673a6;dashed=1;verticalAlign=top;align=center;" vertex="1" parent="1">
          <mxGeometry x="762.5" y="173" width="500" height="680" as="geometry" />
        </mxCell>
        <mxCell id="jN2Ao2LM-aUM4iMut1JE-224" value="&lt;p style=&quot;margin: 4px 0px 0px; text-align: center;&quot;&gt;&lt;strong style=&quot;&quot;&gt;Process Review&lt;/strong&gt;&lt;/p&gt;&lt;hr&gt;&lt;p style=&quot;margin: 0px; margin-left: 8px;&quot;&gt;&lt;br&gt;&lt;/p&gt;" style="verticalAlign=top;align=left;overflow=fill;fontSize=12;fontFamily=Helvetica;html=1;strokeColor=#d6b656;shadow=1;fillColor=#fff2cc;" vertex="1" parent="1">
          <mxGeometry x="793.75" y="373" width="124" height="40" as="geometry" />
        </mxCell>
        <mxCell id="jN2Ao2LM-aUM4iMut1JE-225" value="&lt;p style=&quot;margin: 4px 0px 0px; text-align: center;&quot;&gt;&lt;strong style=&quot;&quot;&gt;Procedure&lt;/strong&gt;&lt;/p&gt;&lt;hr&gt;&lt;p style=&quot;margin: 0px; margin-left: 8px;&quot;&gt;&lt;br&gt;&lt;/p&gt;" style="verticalAlign=top;align=left;overflow=fill;fontSize=12;fontFamily=Helvetica;html=1;strokeColor=#82b366;shadow=1;fillColor=#ACE8E1;" vertex="1" parent="1">
          <mxGeometry x="793.75" y="213" width="124" height="40" as="geometry" />
        </mxCell>
        <mxCell id="jN2Ao2LM-aUM4iMut1JE-226" value="&lt;p style=&quot;margin: 4px 0px 0px; text-align: center;&quot;&gt;&lt;strong style=&quot;&quot;&gt;Procedure Review&lt;/strong&gt;&lt;/p&gt;&lt;hr&gt;&lt;p style=&quot;margin: 0px; margin-left: 8px;&quot;&gt;&lt;br&gt;&lt;/p&gt;" style="verticalAlign=top;align=left;overflow=fill;fontSize=12;fontFamily=Helvetica;html=1;strokeColor=#d79b00;shadow=1;fillColor=#8DC2BB;" vertex="1" parent="1">
          <mxGeometry x="793.75" y="310" width="124" height="40" as="geometry" />
        </mxCell>
        <mxCell id="jN2Ao2LM-aUM4iMut1JE-227" value="" style="endArrow=open;endSize=12;startArrow=diamondThin;startSize=14;startFill=0;edgeStyle=orthogonalEdgeStyle;labelBackgroundColor=default;entryX=0.5;entryY=1;entryDx=0;entryDy=0;exitX=0.5;exitY=0;exitDx=0;exitDy=0;" edge="1" source="jN2Ao2LM-aUM4iMut1JE-226" target="jN2Ao2LM-aUM4iMut1JE-225" parent="1">
          <mxGeometry x="620" y="340" as="geometry">
            <mxPoint x="43.75" y="403" as="sourcePoint" />
            <mxPoint x="43.75" y="333" as="targetPoint" />
          </mxGeometry>
        </mxCell>
        <mxCell id="jN2Ao2LM-aUM4iMut1JE-228" value="0..n" style="resizable=0;align=left;verticalAlign=top;labelBackgroundColor=none;fontSize=10;strokeColor=#003366;shadow=1;fillColor=#D4E1F5;fontColor=#003366" connectable="0" vertex="1" parent="jN2Ao2LM-aUM4iMut1JE-227">
          <mxGeometry x="-1" relative="1" as="geometry">
            <mxPoint x="9" y="-22" as="offset" />
          </mxGeometry>
        </mxCell>
        <mxCell id="jN2Ao2LM-aUM4iMut1JE-229" value="1" style="resizable=0;align=right;verticalAlign=top;labelBackgroundColor=none;fontSize=10;strokeColor=#003366;shadow=1;fillColor=#D4E1F5;fontColor=#003366" connectable="0" vertex="1" parent="jN2Ao2LM-aUM4iMut1JE-227">
          <mxGeometry x="1" relative="1" as="geometry">
            <mxPoint x="19" as="offset" />
          </mxGeometry>
        </mxCell>
        <mxCell id="jN2Ao2LM-aUM4iMut1JE-230" value="is review of" style="edgeLabel;html=1;align=center;verticalAlign=middle;resizable=0;points=[];labelBackgroundColor=none;" vertex="1" connectable="0" parent="jN2Ao2LM-aUM4iMut1JE-227">
          <mxGeometry relative="1" as="geometry">
            <mxPoint x="-1" as="offset" />
          </mxGeometry>
        </mxCell>
        <mxCell id="jN2Ao2LM-aUM4iMut1JE-231" value="&lt;p style=&quot;margin: 4px 0px 0px; text-align: center;&quot;&gt;&lt;strong style=&quot;&quot;&gt;Key Performance Indicator&lt;/strong&gt;&lt;/p&gt;&lt;hr&gt;&lt;p style=&quot;margin: 0px; margin-left: 8px;&quot;&gt;&lt;br&gt;&lt;/p&gt;" style="verticalAlign=top;align=left;overflow=fill;fontSize=12;fontFamily=Helvetica;html=1;strokeColor=#2D7600;shadow=1;fillColor=#009999;fontColor=#ffffff;" vertex="1" parent="1">
          <mxGeometry x="928.75" y="213" width="165" height="40" as="geometry" />
        </mxCell>
        <mxCell id="jN2Ao2LM-aUM4iMut1JE-232" value="&lt;p style=&quot;margin: 4px 0px 0px; text-align: center;&quot;&gt;&lt;strong style=&quot;&quot;&gt;Measurement&lt;/strong&gt;&lt;/p&gt;&lt;hr&gt;&lt;p style=&quot;margin: 0px; margin-left: 8px;&quot;&gt;&lt;br&gt;&lt;/p&gt;" style="verticalAlign=top;align=left;overflow=fill;fontSize=12;fontFamily=Helvetica;html=1;strokeColor=#6c8ebf;shadow=1;fillColor=#8FCBFC;" vertex="1" parent="1">
          <mxGeometry x="947.25" y="310" width="126.5" height="40" as="geometry" />
        </mxCell>
        <mxCell id="jN2Ao2LM-aUM4iMut1JE-233" value="" style="endArrow=open;endSize=12;startArrow=diamondThin;startSize=14;startFill=0;edgeStyle=orthogonalEdgeStyle;labelBackgroundColor=default;entryX=0.5;entryY=1;entryDx=0;entryDy=0;exitX=0.5;exitY=0;exitDx=0;exitDy=0;" edge="1" source="jN2Ao2LM-aUM4iMut1JE-232" target="jN2Ao2LM-aUM4iMut1JE-231" parent="1">
          <mxGeometry x="620" y="340" as="geometry">
            <mxPoint x="69.75" y="463" as="sourcePoint" />
            <mxPoint x="-58.25" y="443" as="targetPoint" />
          </mxGeometry>
        </mxCell>
        <mxCell id="jN2Ao2LM-aUM4iMut1JE-234" value="0..n" style="resizable=0;align=left;verticalAlign=top;labelBackgroundColor=none;fontSize=10;strokeColor=#003366;shadow=1;fillColor=#D4E1F5;fontColor=#003366" connectable="0" vertex="1" parent="jN2Ao2LM-aUM4iMut1JE-233">
          <mxGeometry x="-1" relative="1" as="geometry">
            <mxPoint x="8" y="-22" as="offset" />
          </mxGeometry>
        </mxCell>
        <mxCell id="jN2Ao2LM-aUM4iMut1JE-235" value="1" style="resizable=0;align=right;verticalAlign=top;labelBackgroundColor=none;fontSize=10;strokeColor=#003366;shadow=1;fillColor=#D4E1F5;fontColor=#003366" connectable="0" vertex="1" parent="jN2Ao2LM-aUM4iMut1JE-233">
          <mxGeometry x="1" relative="1" as="geometry">
            <mxPoint x="20" as="offset" />
          </mxGeometry>
        </mxCell>
        <mxCell id="jN2Ao2LM-aUM4iMut1JE-236" value="is measurement for" style="edgeLabel;html=1;align=center;verticalAlign=middle;resizable=0;points=[];labelBackgroundColor=none;" vertex="1" connectable="0" parent="jN2Ao2LM-aUM4iMut1JE-233">
          <mxGeometry relative="1" as="geometry">
            <mxPoint x="3" as="offset" />
          </mxGeometry>
        </mxCell>
        <mxCell id="jN2Ao2LM-aUM4iMut1JE-237" value="" style="endArrow=open;endSize=12;startArrow=diamondThin;startSize=14;startFill=0;edgeStyle=orthogonalEdgeStyle;labelBackgroundColor=default;entryX=1;entryY=0.5;entryDx=0;entryDy=0;exitX=0;exitY=0.5;exitDx=0;exitDy=0;" edge="1" parent="1" source="jN2Ao2LM-aUM4iMut1JE-224" target="jN2Ao2LM-aUM4iMut1JE-112">
          <mxGeometry x="620" y="340" as="geometry">
            <mxPoint x="1444" y="163" as="sourcePoint" />
            <mxPoint x="443" y="163" as="targetPoint" />
          </mxGeometry>
        </mxCell>
        <mxCell id="jN2Ao2LM-aUM4iMut1JE-238" value="0..n" style="resizable=0;align=left;verticalAlign=top;labelBackgroundColor=none;fontSize=10;strokeColor=#003366;shadow=1;fillColor=#D4E1F5;fontColor=#003366" connectable="0" vertex="1" parent="jN2Ao2LM-aUM4iMut1JE-237">
          <mxGeometry x="-1" relative="1" as="geometry">
            <mxPoint x="-28" y="-28" as="offset" />
          </mxGeometry>
        </mxCell>
        <mxCell id="jN2Ao2LM-aUM4iMut1JE-239" value="1" style="resizable=0;align=right;verticalAlign=top;labelBackgroundColor=none;fontSize=10;strokeColor=#003366;shadow=1;fillColor=#D4E1F5;fontColor=#003366" connectable="0" vertex="1" parent="jN2Ao2LM-aUM4iMut1JE-237">
          <mxGeometry x="1" relative="1" as="geometry">
            <mxPoint x="21" y="-25" as="offset" />
          </mxGeometry>
        </mxCell>
        <mxCell id="jN2Ao2LM-aUM4iMut1JE-240" value="is review of" style="edgeLabel;html=1;align=center;verticalAlign=middle;resizable=0;points=[];labelBackgroundColor=none;" vertex="1" connectable="0" parent="jN2Ao2LM-aUM4iMut1JE-237">
          <mxGeometry relative="1" as="geometry">
            <mxPoint x="-447" y="-10" as="offset" />
          </mxGeometry>
        </mxCell>
        <mxCell id="jN2Ao2LM-aUM4iMut1JE-241" value="is review of" style="edgeLabel;html=1;align=center;verticalAlign=middle;resizable=0;points=[];labelBackgroundColor=none;" vertex="1" connectable="0" parent="jN2Ao2LM-aUM4iMut1JE-237">
          <mxGeometry relative="1" as="geometry">
            <mxPoint x="-123" y="-106" as="offset" />
          </mxGeometry>
        </mxCell>
        <mxCell id="jN2Ao2LM-aUM4iMut1JE-242" value="&lt;p style=&quot;margin: 4px 0px 0px; text-align: center;&quot;&gt;&lt;strong style=&quot;&quot;&gt;Service Level Agreement&lt;/strong&gt;&lt;/p&gt;&lt;hr&gt;&lt;p style=&quot;margin: 0px; margin-left: 8px;&quot;&gt;&lt;br&gt;&lt;/p&gt;" style="verticalAlign=top;align=left;overflow=fill;fontSize=12;fontFamily=Helvetica;html=1;strokeColor=#6c8ebf;shadow=1;fillColor=#dae8fc;" vertex="1" parent="1">
          <mxGeometry x="1040.25" y="373" width="174" height="40" as="geometry" />
        </mxCell>
        <mxCell id="jN2Ao2LM-aUM4iMut1JE-243" value="" style="endArrow=open;endSize=12;startArrow=diamondThin;startSize=14;startFill=0;edgeStyle=orthogonalEdgeStyle;labelBackgroundColor=default;entryX=1;entryY=0.5;entryDx=0;entryDy=0;exitX=0.75;exitY=0;exitDx=0;exitDy=0;" edge="1" parent="1" source="jN2Ao2LM-aUM4iMut1JE-242" target="y1ez__rVfO7GERN6JN9X-187">
          <mxGeometry x="1359" y="-200" as="geometry">
            <mxPoint x="1309" y="-138" as="sourcePoint" />
            <mxPoint x="1229" y="-187" as="targetPoint" />
            <Array as="points">
              <mxPoint x="1171" y="330" />
              <mxPoint x="1290" y="330" />
              <mxPoint x="1290" y="-217" />
            </Array>
          </mxGeometry>
        </mxCell>
        <mxCell id="jN2Ao2LM-aUM4iMut1JE-244" value="0..n" style="resizable=0;align=left;verticalAlign=top;labelBackgroundColor=none;fontSize=10;strokeColor=#003366;shadow=1;fillColor=#D4E1F5;fontColor=#003366" connectable="0" vertex="1" parent="jN2Ao2LM-aUM4iMut1JE-243">
          <mxGeometry x="-1" relative="1" as="geometry">
            <mxPoint x="7" y="-24" as="offset" />
          </mxGeometry>
        </mxCell>
        <mxCell id="jN2Ao2LM-aUM4iMut1JE-245" value="1+" style="resizable=0;align=right;verticalAlign=top;labelBackgroundColor=none;fontSize=10;strokeColor=#003366;shadow=1;fillColor=#D4E1F5;fontColor=#003366" connectable="0" vertex="1" parent="jN2Ao2LM-aUM4iMut1JE-243">
          <mxGeometry x="1" relative="1" as="geometry">
            <mxPoint x="29" y="-24" as="offset" />
          </mxGeometry>
        </mxCell>
        <mxCell id="jN2Ao2LM-aUM4iMut1JE-246" value="is contract of" style="edgeLabel;html=1;align=center;verticalAlign=middle;resizable=0;points=[];labelBackgroundColor=none;" vertex="1" connectable="0" parent="jN2Ao2LM-aUM4iMut1JE-243">
          <mxGeometry relative="1" as="geometry">
            <mxPoint x="-70" y="300" as="offset" />
          </mxGeometry>
        </mxCell>
        <mxCell id="jN2Ao2LM-aUM4iMut1JE-247" value="is contract of" style="edgeLabel;html=1;align=center;verticalAlign=middle;resizable=0;points=[];labelBackgroundColor=none;" vertex="1" connectable="0" parent="jN2Ao2LM-aUM4iMut1JE-243">
          <mxGeometry relative="1" as="geometry">
            <mxPoint x="-90" y="-267" as="offset" />
          </mxGeometry>
        </mxCell>
        <mxCell id="jN2Ao2LM-aUM4iMut1JE-248" value="" style="endArrow=open;endSize=12;startArrow=diamondThin;startSize=14;startFill=0;edgeStyle=orthogonalEdgeStyle;labelBackgroundColor=default;entryX=0.5;entryY=0;entryDx=0;entryDy=0;exitX=0.25;exitY=1;exitDx=0;exitDy=0;" edge="1" parent="1" source="jN2Ao2LM-aUM4iMut1JE-217" target="jN2Ao2LM-aUM4iMut1JE-285">
          <mxGeometry x="620" y="340" as="geometry">
            <mxPoint x="964.75" y="607.75" as="sourcePoint" />
            <mxPoint x="603.75" y="417.75" as="targetPoint" />
            <Array as="points">
              <mxPoint x="1510" y="430" />
              <mxPoint x="1144" y="430" />
            </Array>
          </mxGeometry>
        </mxCell>
        <mxCell id="jN2Ao2LM-aUM4iMut1JE-249" value="0..1" style="resizable=0;align=left;verticalAlign=top;labelBackgroundColor=none;fontSize=10;strokeColor=#003366;shadow=1;fillColor=#D4E1F5;fontColor=#003366" connectable="0" vertex="1" parent="jN2Ao2LM-aUM4iMut1JE-248">
          <mxGeometry x="-1" relative="1" as="geometry">
            <mxPoint x="-28" y="3" as="offset" />
          </mxGeometry>
        </mxCell>
        <mxCell id="jN2Ao2LM-aUM4iMut1JE-250" value="1" style="resizable=0;align=right;verticalAlign=top;labelBackgroundColor=none;fontSize=10;strokeColor=#003366;shadow=1;fillColor=#D4E1F5;fontColor=#003366" connectable="0" vertex="1" parent="jN2Ao2LM-aUM4iMut1JE-248">
          <mxGeometry x="1" relative="1" as="geometry">
            <mxPoint x="-11" y="-26" as="offset" />
          </mxGeometry>
        </mxCell>
        <mxCell id="jN2Ao2LM-aUM4iMut1JE-258" value="ordered via" style="edgeLabel;html=1;align=center;verticalAlign=middle;resizable=0;points=[];labelBackgroundColor=none;" vertex="1" connectable="0" parent="jN2Ao2LM-aUM4iMut1JE-248">
          <mxGeometry relative="1" as="geometry">
            <mxPoint x="-179" y="80" as="offset" />
          </mxGeometry>
        </mxCell>
        <mxCell id="jN2Ao2LM-aUM4iMut1JE-259" value="ordered via" style="edgeLabel;html=1;align=center;verticalAlign=middle;resizable=0;points=[];labelBackgroundColor=none;" vertex="1" connectable="0" parent="jN2Ao2LM-aUM4iMut1JE-248">
          <mxGeometry relative="1" as="geometry">
            <mxPoint x="151" y="-10" as="offset" />
          </mxGeometry>
        </mxCell>
        <mxCell id="jN2Ao2LM-aUM4iMut1JE-260" value="" style="endArrow=open;endSize=12;startArrow=diamondThin;startSize=14;startFill=0;edgeStyle=orthogonalEdgeStyle;labelBackgroundColor=default;entryX=0.75;entryY=0;entryDx=0;entryDy=0;exitX=0.25;exitY=1;exitDx=0;exitDy=0;" edge="1" parent="1" source="jN2Ao2LM-aUM4iMut1JE-216" target="jN2Ao2LM-aUM4iMut1JE-285">
          <mxGeometry x="620" y="340" as="geometry">
            <mxPoint x="1580" y="363" as="sourcePoint" />
            <mxPoint x="1125" y="490" as="targetPoint" />
            <Array as="points">
              <mxPoint x="1640" y="440" />
              <mxPoint x="1166" y="440" />
            </Array>
          </mxGeometry>
        </mxCell>
        <mxCell id="jN2Ao2LM-aUM4iMut1JE-261" value="0..1" style="resizable=0;align=left;verticalAlign=top;labelBackgroundColor=none;fontSize=10;strokeColor=#003366;shadow=1;fillColor=#D4E1F5;fontColor=#003366" connectable="0" vertex="1" parent="jN2Ao2LM-aUM4iMut1JE-260">
          <mxGeometry x="-1" relative="1" as="geometry">
            <mxPoint x="-30" y="5" as="offset" />
          </mxGeometry>
        </mxCell>
        <mxCell id="jN2Ao2LM-aUM4iMut1JE-262" value="1" style="resizable=0;align=right;verticalAlign=top;labelBackgroundColor=none;fontSize=10;strokeColor=#003366;shadow=1;fillColor=#D4E1F5;fontColor=#003366" connectable="0" vertex="1" parent="jN2Ao2LM-aUM4iMut1JE-260">
          <mxGeometry x="1" relative="1" as="geometry">
            <mxPoint x="19" y="-25" as="offset" />
          </mxGeometry>
        </mxCell>
        <mxCell id="jN2Ao2LM-aUM4iMut1JE-265" value="ordered via" style="edgeLabel;html=1;align=center;verticalAlign=middle;resizable=0;points=[];labelBackgroundColor=none;" vertex="1" connectable="0" parent="jN2Ao2LM-aUM4iMut1JE-260">
          <mxGeometry relative="1" as="geometry">
            <mxPoint x="-175" y="70" as="offset" />
          </mxGeometry>
        </mxCell>
        <mxCell id="jN2Ao2LM-aUM4iMut1JE-266" value="ordered via" style="edgeLabel;html=1;align=center;verticalAlign=middle;resizable=0;points=[];labelBackgroundColor=none;" vertex="1" connectable="0" parent="jN2Ao2LM-aUM4iMut1JE-260">
          <mxGeometry relative="1" as="geometry">
            <mxPoint x="235" y="-10" as="offset" />
          </mxGeometry>
        </mxCell>
        <mxCell id="jN2Ao2LM-aUM4iMut1JE-267" value="" style="endArrow=open;endSize=12;startArrow=open;startSize=14;startFill=0;edgeStyle=orthogonalEdgeStyle;labelBackgroundColor=default;entryX=1;entryY=0.5;entryDx=0;entryDy=0;exitX=0.5;exitY=0;exitDx=0;exitDy=0;" edge="1" parent="1" source="jN2Ao2LM-aUM4iMut1JE-242" target="y1ez__rVfO7GERN6JN9X-198">
          <mxGeometry x="1359" y="-200" as="geometry">
            <mxPoint x="1099" y="490" as="sourcePoint" />
            <mxPoint x="1105" y="-207" as="targetPoint" />
            <Array as="points">
              <mxPoint x="1127" y="320" />
              <mxPoint x="1280" y="320" />
              <mxPoint x="1280" y="-128" />
            </Array>
          </mxGeometry>
        </mxCell>
        <mxCell id="jN2Ao2LM-aUM4iMut1JE-268" value="1" style="resizable=0;align=left;verticalAlign=top;labelBackgroundColor=none;fontSize=10;strokeColor=#003366;shadow=1;fillColor=#D4E1F5;fontColor=#003366" connectable="0" vertex="1" parent="jN2Ao2LM-aUM4iMut1JE-267">
          <mxGeometry x="-1" relative="1" as="geometry">
            <mxPoint x="-21" y="-23" as="offset" />
          </mxGeometry>
        </mxCell>
        <mxCell id="jN2Ao2LM-aUM4iMut1JE-269" value="1" style="resizable=0;align=right;verticalAlign=top;labelBackgroundColor=none;fontSize=10;strokeColor=#003366;shadow=1;fillColor=#D4E1F5;fontColor=#003366" connectable="0" vertex="1" parent="jN2Ao2LM-aUM4iMut1JE-267">
          <mxGeometry x="1" relative="1" as="geometry">
            <mxPoint x="24" y="-2" as="offset" />
          </mxGeometry>
        </mxCell>
        <mxCell id="jN2Ao2LM-aUM4iMut1JE-271" value="relates to" style="edgeLabel;html=1;align=center;verticalAlign=middle;resizable=0;points=[];labelBackgroundColor=none;" vertex="1" connectable="0" parent="jN2Ao2LM-aUM4iMut1JE-267">
          <mxGeometry relative="1" as="geometry">
            <mxPoint x="-50" y="-284" as="offset" />
          </mxGeometry>
        </mxCell>
        <mxCell id="jN2Ao2LM-aUM4iMut1JE-272" value="relates to" style="edgeLabel;html=1;align=center;verticalAlign=middle;resizable=0;points=[];labelBackgroundColor=none;" vertex="1" connectable="0" parent="jN2Ao2LM-aUM4iMut1JE-267">
          <mxGeometry relative="1" as="geometry">
            <mxPoint x="-130" y="163" as="offset" />
          </mxGeometry>
        </mxCell>
        <mxCell id="jN2Ao2LM-aUM4iMut1JE-273" value="&lt;p style=&quot;margin: 4px 0px 0px; text-align: center;&quot;&gt;&lt;strong style=&quot;&quot;&gt;Operational Level Agreement&lt;/strong&gt;&lt;/p&gt;&lt;hr&gt;&lt;p style=&quot;margin: 0px; margin-left: 8px;&quot;&gt;&lt;br&gt;&lt;/p&gt;" style="verticalAlign=top;align=left;overflow=fill;fontSize=12;fontFamily=Helvetica;html=1;strokeColor=#82b366;shadow=1;fillColor=#CCFFFF;" vertex="1" parent="1">
          <mxGeometry x="795" y="720" width="184" height="40" as="geometry" />
        </mxCell>
        <mxCell id="jN2Ao2LM-aUM4iMut1JE-274" value="&lt;p style=&quot;margin: 4px 0px 0px; text-align: center;&quot;&gt;&lt;strong style=&quot;&quot;&gt;Dataset&lt;/strong&gt;&lt;strong style=&quot;background-color: transparent; color: light-dark(rgb(0, 0, 0), rgb(255, 255, 255));&quot;&gt;&amp;nbsp;Parameter&lt;/strong&gt;&lt;/p&gt;&lt;hr&gt;&lt;p style=&quot;margin: 0px; margin-left: 8px;&quot;&gt;parameterCode&lt;/p&gt;" style="verticalAlign=top;align=left;overflow=fill;fontSize=12;fontFamily=Helvetica;html=1;strokeColor=#82B366;shadow=1;fillColor=#AEBDAD;" vertex="1" parent="1">
          <mxGeometry x="1430" y="503" width="120" height="57" as="geometry" />
        </mxCell>
        <mxCell id="jN2Ao2LM-aUM4iMut1JE-275" value="" style="endArrow=open;endSize=12;startArrow=diamondThin;startSize=14;startFill=0;edgeStyle=orthogonalEdgeStyle;labelBackgroundColor=default;entryX=0.75;entryY=1;entryDx=0;entryDy=0;exitX=0.25;exitY=0;exitDx=0;exitDy=0;" edge="1" parent="1" source="jN2Ao2LM-aUM4iMut1JE-274" target="jN2Ao2LM-aUM4iMut1JE-217">
          <mxGeometry x="620" y="340" as="geometry">
            <mxPoint x="1508" y="200" as="sourcePoint" />
            <mxPoint x="1508" y="143" as="targetPoint" />
            <Array as="points">
              <mxPoint x="1460" y="473" />
              <mxPoint x="1570" y="473" />
            </Array>
          </mxGeometry>
        </mxCell>
        <mxCell id="jN2Ao2LM-aUM4iMut1JE-276" value="0..n" style="resizable=0;align=left;verticalAlign=top;labelBackgroundColor=none;fontSize=10;strokeColor=#003366;shadow=1;fillColor=#D4E1F5;fontColor=#003366" connectable="0" vertex="1" parent="jN2Ao2LM-aUM4iMut1JE-275">
          <mxGeometry x="-1" relative="1" as="geometry">
            <mxPoint x="-30" y="-24" as="offset" />
          </mxGeometry>
        </mxCell>
        <mxCell id="jN2Ao2LM-aUM4iMut1JE-277" value="1" style="resizable=0;align=right;verticalAlign=top;labelBackgroundColor=none;fontSize=10;strokeColor=#003366;shadow=1;fillColor=#D4E1F5;fontColor=#003366" connectable="0" vertex="1" parent="jN2Ao2LM-aUM4iMut1JE-275">
          <mxGeometry x="1" relative="1" as="geometry">
            <mxPoint x="19" y="7" as="offset" />
          </mxGeometry>
        </mxCell>
        <mxCell id="jN2Ao2LM-aUM4iMut1JE-278" value="configures" style="edgeLabel;html=1;align=center;verticalAlign=middle;resizable=0;points=[];labelBackgroundColor=none;" vertex="1" connectable="0" parent="jN2Ao2LM-aUM4iMut1JE-275">
          <mxGeometry relative="1" as="geometry">
            <mxPoint x="-28" y="7" as="offset" />
          </mxGeometry>
        </mxCell>
        <mxCell id="jN2Ao2LM-aUM4iMut1JE-279" value="&lt;p style=&quot;margin: 4px 0px 0px; text-align: center;&quot;&gt;&lt;b&gt;Service Parameter&lt;/b&gt;&lt;/p&gt;&lt;hr&gt;&lt;p style=&quot;margin: 0px; margin-left: 8px;&quot;&gt;parameterCode&lt;/p&gt;" style="verticalAlign=top;align=left;overflow=fill;fontSize=12;fontFamily=Helvetica;html=1;strokeColor=#B85450;shadow=1;fillColor=#D1AEAC;" vertex="1" parent="1">
          <mxGeometry x="1560.01" y="503" width="120" height="57" as="geometry" />
        </mxCell>
        <mxCell id="jN2Ao2LM-aUM4iMut1JE-280" value="" style="endArrow=open;endSize=12;startArrow=diamondThin;startSize=14;startFill=0;edgeStyle=orthogonalEdgeStyle;labelBackgroundColor=default;entryX=0.75;entryY=1;entryDx=0;entryDy=0;exitX=0.25;exitY=0;exitDx=0;exitDy=0;" edge="1" parent="1" source="jN2Ao2LM-aUM4iMut1JE-279" target="jN2Ao2LM-aUM4iMut1JE-216">
          <mxGeometry x="620" y="340" as="geometry">
            <mxPoint x="1632" y="296" as="sourcePoint" />
            <mxPoint x="1580" y="356" as="targetPoint" />
            <Array as="points">
              <mxPoint x="1590" y="473" />
              <mxPoint x="1700" y="473" />
            </Array>
          </mxGeometry>
        </mxCell>
        <mxCell id="jN2Ao2LM-aUM4iMut1JE-281" value="0..n" style="resizable=0;align=left;verticalAlign=top;labelBackgroundColor=none;fontSize=10;strokeColor=#003366;shadow=1;fillColor=#D4E1F5;fontColor=#003366" connectable="0" vertex="1" parent="jN2Ao2LM-aUM4iMut1JE-280">
          <mxGeometry x="-1" relative="1" as="geometry">
            <mxPoint x="-30" y="-24" as="offset" />
          </mxGeometry>
        </mxCell>
        <mxCell id="jN2Ao2LM-aUM4iMut1JE-282" value="1" style="resizable=0;align=right;verticalAlign=top;labelBackgroundColor=none;fontSize=10;strokeColor=#003366;shadow=1;fillColor=#D4E1F5;fontColor=#003366" connectable="0" vertex="1" parent="jN2Ao2LM-aUM4iMut1JE-280">
          <mxGeometry x="1" relative="1" as="geometry">
            <mxPoint x="19" y="7" as="offset" />
          </mxGeometry>
        </mxCell>
        <mxCell id="jN2Ao2LM-aUM4iMut1JE-283" value="configures" style="edgeLabel;html=1;align=center;verticalAlign=middle;resizable=0;points=[];labelBackgroundColor=none;" vertex="1" connectable="0" parent="jN2Ao2LM-aUM4iMut1JE-280">
          <mxGeometry relative="1" as="geometry">
            <mxPoint x="-28" y="7" as="offset" />
          </mxGeometry>
        </mxCell>
        <mxCell id="jN2Ao2LM-aUM4iMut1JE-284" value="&lt;p style=&quot;margin: 4px 0px 0px; text-align: center;&quot;&gt;&lt;strong style=&quot;&quot;&gt;Order&lt;/strong&gt;&lt;/p&gt;&lt;hr&gt;&lt;p style=&quot;margin: 0px; margin-left: 8px;&quot;&gt;&lt;br&gt;&lt;/p&gt;" style="verticalAlign=top;align=left;overflow=fill;fontSize=12;fontFamily=Helvetica;html=1;strokeColor=#3700CC;shadow=1;fillColor=light-dark(#E5CCFF,#CC99FF);fontColor=default;" vertex="1" parent="1">
          <mxGeometry x="983.75" y="470" width="86.25" height="40" as="geometry" />
        </mxCell>
        <mxCell id="jN2Ao2LM-aUM4iMut1JE-285" value="&lt;p style=&quot;margin: 4px 0px 0px; text-align: center;&quot;&gt;&lt;strong style=&quot;&quot;&gt;Order Item&lt;/strong&gt;&lt;/p&gt;&lt;hr&gt;&lt;p style=&quot;margin: 0px; margin-left: 8px;&quot;&gt;&lt;br&gt;&lt;/p&gt;" style="verticalAlign=top;align=left;overflow=fill;fontSize=12;fontFamily=Helvetica;html=1;strokeColor=#82b366;shadow=1;fillColor=#d5e8d4;" vertex="1" parent="1">
          <mxGeometry x="1099" y="550" width="90" height="40" as="geometry" />
        </mxCell>
        <mxCell id="jN2Ao2LM-aUM4iMut1JE-286" value="&lt;p style=&quot;margin: 4px 0px 0px; text-align: center;&quot;&gt;&lt;strong style=&quot;&quot;&gt;Order Parameter&lt;/strong&gt;&lt;/p&gt;&lt;hr&gt;&lt;p style=&quot;margin: 0px; margin-left: 8px;&quot;&gt;parameterCode&lt;/p&gt;" style="verticalAlign=top;align=left;overflow=fill;fontSize=12;fontFamily=Helvetica;html=1;strokeColor=#82b366;shadow=1;fillColor=#E6FFCC;" vertex="1" parent="1">
          <mxGeometry x="1010" y="636" width="120" height="57" as="geometry" />
        </mxCell>
        <mxCell id="jN2Ao2LM-aUM4iMut1JE-287" value="" style="endArrow=open;endSize=12;startArrow=open;startSize=14;startFill=0;edgeStyle=orthogonalEdgeStyle;labelBackgroundColor=default;entryX=0.75;entryY=1;entryDx=0;entryDy=0;exitX=0.5;exitY=0;exitDx=0;exitDy=0;" edge="1" parent="1" source="jN2Ao2LM-aUM4iMut1JE-286" target="jN2Ao2LM-aUM4iMut1JE-285">
          <mxGeometry x="620" y="340" as="geometry">
            <mxPoint x="1692" y="263" as="sourcePoint" />
            <mxPoint x="1640" y="323" as="targetPoint" />
          </mxGeometry>
        </mxCell>
        <mxCell id="jN2Ao2LM-aUM4iMut1JE-288" value="1" style="resizable=0;align=left;verticalAlign=top;labelBackgroundColor=none;fontSize=10;strokeColor=#003366;shadow=1;fillColor=#D4E1F5;fontColor=#003366" connectable="0" vertex="1" parent="jN2Ao2LM-aUM4iMut1JE-287">
          <mxGeometry x="-1" relative="1" as="geometry">
            <mxPoint x="-16" y="-20" as="offset" />
          </mxGeometry>
        </mxCell>
        <mxCell id="jN2Ao2LM-aUM4iMut1JE-289" value="1" style="resizable=0;align=right;verticalAlign=top;labelBackgroundColor=none;fontSize=10;strokeColor=#003366;shadow=1;fillColor=#D4E1F5;fontColor=#003366" connectable="0" vertex="1" parent="jN2Ao2LM-aUM4iMut1JE-287">
          <mxGeometry x="1" relative="1" as="geometry">
            <mxPoint x="19" as="offset" />
          </mxGeometry>
        </mxCell>
        <mxCell id="jN2Ao2LM-aUM4iMut1JE-290" value="configures" style="edgeLabel;html=1;align=center;verticalAlign=middle;resizable=0;points=[];labelBackgroundColor=none;" vertex="1" connectable="0" parent="jN2Ao2LM-aUM4iMut1JE-287">
          <mxGeometry relative="1" as="geometry">
            <mxPoint x="-11" y="-8" as="offset" />
          </mxGeometry>
        </mxCell>
        <mxCell id="jN2Ao2LM-aUM4iMut1JE-291" value="" style="endArrow=open;endSize=12;startArrow=diamondThin;startSize=14;startFill=0;edgeStyle=orthogonalEdgeStyle;labelBackgroundColor=default;entryX=1;entryY=0.25;entryDx=0;entryDy=0;exitX=0.25;exitY=1;exitDx=0;exitDy=0;" edge="1" parent="1" source="jN2Ao2LM-aUM4iMut1JE-274" target="jN2Ao2LM-aUM4iMut1JE-286">
          <mxGeometry x="620" y="340" as="geometry">
            <mxPoint x="1710" y="363" as="sourcePoint" />
            <mxPoint x="1218" y="640" as="targetPoint" />
            <Array as="points">
              <mxPoint x="1460" y="650" />
            </Array>
          </mxGeometry>
        </mxCell>
        <mxCell id="jN2Ao2LM-aUM4iMut1JE-292" value="0..1" style="resizable=0;align=left;verticalAlign=top;labelBackgroundColor=none;fontSize=10;strokeColor=#003366;shadow=1;fillColor=#D4E1F5;fontColor=#003366" connectable="0" vertex="1" parent="jN2Ao2LM-aUM4iMut1JE-291">
          <mxGeometry x="-1" relative="1" as="geometry">
            <mxPoint x="10" as="offset" />
          </mxGeometry>
        </mxCell>
        <mxCell id="jN2Ao2LM-aUM4iMut1JE-293" value="1" style="resizable=0;align=right;verticalAlign=top;labelBackgroundColor=none;fontSize=10;strokeColor=#003366;shadow=1;fillColor=#D4E1F5;fontColor=#003366" connectable="0" vertex="1" parent="jN2Ao2LM-aUM4iMut1JE-291">
          <mxGeometry x="1" relative="1" as="geometry">
            <mxPoint x="20" y="-27" as="offset" />
          </mxGeometry>
        </mxCell>
        <mxCell id="jN2Ao2LM-aUM4iMut1JE-296" value="is implemented by" style="edgeLabel;html=1;align=center;verticalAlign=middle;resizable=0;points=[];labelBackgroundColor=none;" vertex="1" connectable="0" parent="jN2Ao2LM-aUM4iMut1JE-291">
          <mxGeometry relative="1" as="geometry">
            <mxPoint x="-130" y="-7" as="offset" />
          </mxGeometry>
        </mxCell>
        <mxCell id="jN2Ao2LM-aUM4iMut1JE-297" value="" style="endArrow=open;endSize=12;startArrow=diamondThin;startSize=14;startFill=0;edgeStyle=orthogonalEdgeStyle;labelBackgroundColor=default;entryX=1;entryY=0.75;entryDx=0;entryDy=0;exitX=0.25;exitY=1;exitDx=0;exitDy=0;" edge="1" parent="1" source="jN2Ao2LM-aUM4iMut1JE-279" target="jN2Ao2LM-aUM4iMut1JE-286">
          <mxGeometry x="620" y="340" as="geometry">
            <mxPoint x="1470" y="553" as="sourcePoint" />
            <mxPoint x="1165" y="663" as="targetPoint" />
            <Array as="points">
              <mxPoint x="1590" y="679" />
            </Array>
          </mxGeometry>
        </mxCell>
        <mxCell id="jN2Ao2LM-aUM4iMut1JE-298" value="0..1" style="resizable=0;align=left;verticalAlign=top;labelBackgroundColor=none;fontSize=10;strokeColor=#003366;shadow=1;fillColor=#D4E1F5;fontColor=#003366" connectable="0" vertex="1" parent="jN2Ao2LM-aUM4iMut1JE-297">
          <mxGeometry x="-1" relative="1" as="geometry">
            <mxPoint x="10" as="offset" />
          </mxGeometry>
        </mxCell>
        <mxCell id="jN2Ao2LM-aUM4iMut1JE-299" value="1" style="resizable=0;align=right;verticalAlign=top;labelBackgroundColor=none;fontSize=10;strokeColor=#003366;shadow=1;fillColor=#D4E1F5;fontColor=#003366" connectable="0" vertex="1" parent="jN2Ao2LM-aUM4iMut1JE-297">
          <mxGeometry x="1" relative="1" as="geometry">
            <mxPoint x="18" y="4" as="offset" />
          </mxGeometry>
        </mxCell>
        <mxCell id="jN2Ao2LM-aUM4iMut1JE-301" value="is implemented by" style="edgeLabel;html=1;align=center;verticalAlign=middle;resizable=0;points=[];labelBackgroundColor=none;" vertex="1" connectable="0" parent="jN2Ao2LM-aUM4iMut1JE-297">
          <mxGeometry relative="1" as="geometry">
            <mxPoint x="-211" y="-7" as="offset" />
          </mxGeometry>
        </mxCell>
        <mxCell id="jN2Ao2LM-aUM4iMut1JE-302" value="" style="endArrow=open;endSize=12;startArrow=diamondThin;startSize=14;startFill=0;edgeStyle=orthogonalEdgeStyle;labelBackgroundColor=default;entryX=0.5;entryY=1;entryDx=0;entryDy=0;exitX=0;exitY=0.5;exitDx=0;exitDy=0;" edge="1" parent="1" source="jN2Ao2LM-aUM4iMut1JE-285" target="jN2Ao2LM-aUM4iMut1JE-284">
          <mxGeometry x="620" y="340" as="geometry">
            <mxPoint x="866" y="320" as="sourcePoint" />
            <mxPoint x="866" y="263" as="targetPoint" />
          </mxGeometry>
        </mxCell>
        <mxCell id="jN2Ao2LM-aUM4iMut1JE-303" value="1..n" style="resizable=0;align=left;verticalAlign=top;labelBackgroundColor=none;fontSize=10;strokeColor=#003366;shadow=1;fillColor=#D4E1F5;fontColor=#003366" connectable="0" vertex="1" parent="jN2Ao2LM-aUM4iMut1JE-302">
          <mxGeometry x="-1" relative="1" as="geometry">
            <mxPoint x="-29" as="offset" />
          </mxGeometry>
        </mxCell>
        <mxCell id="jN2Ao2LM-aUM4iMut1JE-304" value="1" style="resizable=0;align=right;verticalAlign=top;labelBackgroundColor=none;fontSize=10;strokeColor=#003366;shadow=1;fillColor=#D4E1F5;fontColor=#003366" connectable="0" vertex="1" parent="jN2Ao2LM-aUM4iMut1JE-302">
          <mxGeometry x="1" relative="1" as="geometry">
            <mxPoint x="19" as="offset" />
          </mxGeometry>
        </mxCell>
        <mxCell id="jN2Ao2LM-aUM4iMut1JE-305" value="is item of" style="edgeLabel;html=1;align=center;verticalAlign=middle;resizable=0;points=[];labelBackgroundColor=none;" vertex="1" connectable="0" parent="jN2Ao2LM-aUM4iMut1JE-302">
          <mxGeometry relative="1" as="geometry">
            <mxPoint x="27" y="-10" as="offset" />
          </mxGeometry>
        </mxCell>
        <mxCell id="jN2Ao2LM-aUM4iMut1JE-306" value="" style="endArrow=open;endSize=12;startArrow=open;startSize=14;startFill=0;edgeStyle=orthogonalEdgeStyle;labelBackgroundColor=default;entryX=0.5;entryY=1;entryDx=0;entryDy=0;exitX=0.5;exitY=0;exitDx=0;exitDy=0;" edge="1" parent="1" source="jN2Ao2LM-aUM4iMut1JE-284" target="jN2Ao2LM-aUM4iMut1JE-242">
          <mxGeometry x="620" y="340" as="geometry">
            <mxPoint x="1109" y="580" as="sourcePoint" />
            <mxPoint x="1037" y="520" as="targetPoint" />
          </mxGeometry>
        </mxCell>
        <mxCell id="jN2Ao2LM-aUM4iMut1JE-307" value="1" style="resizable=0;align=left;verticalAlign=top;labelBackgroundColor=none;fontSize=10;strokeColor=#003366;shadow=1;fillColor=#D4E1F5;fontColor=#003366" connectable="0" vertex="1" parent="jN2Ao2LM-aUM4iMut1JE-306">
          <mxGeometry x="-1" relative="1" as="geometry">
            <mxPoint x="-17" y="-20" as="offset" />
          </mxGeometry>
        </mxCell>
        <mxCell id="jN2Ao2LM-aUM4iMut1JE-308" value="1" style="resizable=0;align=right;verticalAlign=top;labelBackgroundColor=none;fontSize=10;strokeColor=#003366;shadow=1;fillColor=#D4E1F5;fontColor=#003366" connectable="0" vertex="1" parent="jN2Ao2LM-aUM4iMut1JE-306">
          <mxGeometry x="1" relative="1" as="geometry">
            <mxPoint x="-7" as="offset" />
          </mxGeometry>
        </mxCell>
        <mxCell id="jN2Ao2LM-aUM4iMut1JE-309" value="is order of" style="edgeLabel;html=1;align=center;verticalAlign=middle;resizable=0;points=[];labelBackgroundColor=none;" vertex="1" connectable="0" parent="jN2Ao2LM-aUM4iMut1JE-306">
          <mxGeometry relative="1" as="geometry">
            <mxPoint x="-7" y="-10" as="offset" />
          </mxGeometry>
        </mxCell>
        <mxCell id="jN2Ao2LM-aUM4iMut1JE-310" value="&lt;p style=&quot;margin: 4px 0px 0px; text-align: center;&quot;&gt;&lt;strong style=&quot;&quot;&gt;Portfolio&lt;/strong&gt;&lt;/p&gt;&lt;hr&gt;&lt;p style=&quot;margin: 0px; margin-left: 8px;&quot;&gt;&lt;br&gt;&lt;/p&gt;" style="verticalAlign=top;align=left;overflow=fill;fontSize=12;fontFamily=Helvetica;html=1;strokeColor=#3700CC;shadow=1;fillColor=light-dark(#E5CCFF,#CC99FF);fontColor=default;" vertex="1" parent="1">
          <mxGeometry x="1576.88" y="190" width="86.25" height="40" as="geometry" />
        </mxCell>
        <mxCell id="jN2Ao2LM-aUM4iMut1JE-311" value="" style="endArrow=open;endSize=12;startArrow=diamondThin;startSize=14;startFill=0;edgeStyle=orthogonalEdgeStyle;labelBackgroundColor=default;entryX=1;entryY=0.25;entryDx=0;entryDy=0;exitX=0.25;exitY=0;exitDx=0;exitDy=0;" edge="1" parent="1" source="jN2Ao2LM-aUM4iMut1JE-216" target="y1ez__rVfO7GERN6JN9X-213">
          <mxGeometry x="1319" y="-93" as="geometry">
            <mxPoint x="1520" y="356" as="sourcePoint" />
            <mxPoint x="1005" y="13" as="targetPoint" />
            <Array as="points">
              <mxPoint x="1640" y="310" />
              <mxPoint x="1370" y="310" />
              <mxPoint x="1370" y="-17" />
            </Array>
          </mxGeometry>
        </mxCell>
        <mxCell id="jN2Ao2LM-aUM4iMut1JE-312" value="0..n" style="resizable=0;align=left;verticalAlign=top;labelBackgroundColor=none;fontSize=10;strokeColor=#003366;shadow=1;fillColor=#D4E1F5;fontColor=#003366" connectable="0" vertex="1" parent="jN2Ao2LM-aUM4iMut1JE-311">
          <mxGeometry x="-1" relative="1" as="geometry">
            <mxPoint x="-30" y="-24" as="offset" />
          </mxGeometry>
        </mxCell>
        <mxCell id="jN2Ao2LM-aUM4iMut1JE-313" value="1+" style="resizable=0;align=right;verticalAlign=top;labelBackgroundColor=none;fontSize=10;strokeColor=#003366;shadow=1;fillColor=#D4E1F5;fontColor=#003366" connectable="0" vertex="1" parent="jN2Ao2LM-aUM4iMut1JE-311">
          <mxGeometry x="1" relative="1" as="geometry">
            <mxPoint x="31" y="-3" as="offset" />
          </mxGeometry>
        </mxCell>
        <mxCell id="jN2Ao2LM-aUM4iMut1JE-314" value="relates to" style="edgeLabel;html=1;align=center;verticalAlign=middle;resizable=0;points=[];labelBackgroundColor=none;" vertex="1" connectable="0" parent="jN2Ao2LM-aUM4iMut1JE-311">
          <mxGeometry relative="1" as="geometry">
            <mxPoint x="70" y="188" as="offset" />
          </mxGeometry>
        </mxCell>
        <mxCell id="jN2Ao2LM-aUM4iMut1JE-315" value="relates to" style="edgeLabel;html=1;align=center;verticalAlign=middle;resizable=0;points=[];labelBackgroundColor=none;" vertex="1" connectable="0" parent="jN2Ao2LM-aUM4iMut1JE-311">
          <mxGeometry relative="1" as="geometry">
            <mxPoint x="-160" y="-122" as="offset" />
          </mxGeometry>
        </mxCell>
        <mxCell id="jN2Ao2LM-aUM4iMut1JE-317" value="" style="endArrow=diamondThin;endSize=12;startArrow=open;startSize=14;startFill=0;edgeStyle=orthogonalEdgeStyle;labelBackgroundColor=default;entryX=0.25;entryY=1;entryDx=0;entryDy=0;exitX=0.5;exitY=0;exitDx=0;exitDy=0;endFill=0;" edge="1" parent="1" source="jN2Ao2LM-aUM4iMut1JE-217" target="jN2Ao2LM-aUM4iMut1JE-310">
          <mxGeometry x="620" y="340" as="geometry">
            <mxPoint x="1037" y="480" as="sourcePoint" />
            <mxPoint x="1137" y="423" as="targetPoint" />
            <Array as="points">
              <mxPoint x="1540" y="270" />
              <mxPoint x="1598" y="270" />
            </Array>
          </mxGeometry>
        </mxCell>
        <mxCell id="jN2Ao2LM-aUM4iMut1JE-318" value="1" style="resizable=0;align=left;verticalAlign=top;labelBackgroundColor=none;fontSize=10;strokeColor=#003366;shadow=1;fillColor=#D4E1F5;fontColor=#003366" connectable="0" vertex="1" parent="jN2Ao2LM-aUM4iMut1JE-317">
          <mxGeometry x="-1" relative="1" as="geometry">
            <mxPoint x="10" y="-26" as="offset" />
          </mxGeometry>
        </mxCell>
        <mxCell id="jN2Ao2LM-aUM4iMut1JE-319" value="0..1" style="resizable=0;align=right;verticalAlign=top;labelBackgroundColor=none;fontSize=10;strokeColor=#003366;shadow=1;fillColor=#D4E1F5;fontColor=#003366" connectable="0" vertex="1" parent="jN2Ao2LM-aUM4iMut1JE-317">
          <mxGeometry x="1" relative="1" as="geometry">
            <mxPoint x="-7" as="offset" />
          </mxGeometry>
        </mxCell>
        <mxCell id="jN2Ao2LM-aUM4iMut1JE-320" value="has dataset" style="edgeLabel;html=1;align=center;verticalAlign=middle;resizable=0;points=[];labelBackgroundColor=none;" vertex="1" connectable="0" parent="jN2Ao2LM-aUM4iMut1JE-317">
          <mxGeometry relative="1" as="geometry">
            <mxPoint x="-7" y="-10" as="offset" />
          </mxGeometry>
        </mxCell>
        <mxCell id="jN2Ao2LM-aUM4iMut1JE-321" value="" style="endArrow=diamondThin;endSize=12;startArrow=open;startSize=14;startFill=0;edgeStyle=orthogonalEdgeStyle;labelBackgroundColor=default;entryX=0.75;entryY=1;entryDx=0;entryDy=0;exitX=0.5;exitY=0;exitDx=0;exitDy=0;endFill=0;" edge="1" parent="1" source="jN2Ao2LM-aUM4iMut1JE-216" target="jN2Ao2LM-aUM4iMut1JE-310">
          <mxGeometry x="620" y="340" as="geometry">
            <mxPoint x="1550" y="356" as="sourcePoint" />
            <mxPoint x="1625" y="240" as="targetPoint" />
            <Array as="points">
              <mxPoint x="1670" y="290" />
              <mxPoint x="1642" y="290" />
            </Array>
          </mxGeometry>
        </mxCell>
        <mxCell id="jN2Ao2LM-aUM4iMut1JE-322" value="1" style="resizable=0;align=left;verticalAlign=top;labelBackgroundColor=none;fontSize=10;strokeColor=#003366;shadow=1;fillColor=#D4E1F5;fontColor=#003366" connectable="0" vertex="1" parent="jN2Ao2LM-aUM4iMut1JE-321">
          <mxGeometry x="-1" relative="1" as="geometry">
            <mxPoint x="10" y="-26" as="offset" />
          </mxGeometry>
        </mxCell>
        <mxCell id="jN2Ao2LM-aUM4iMut1JE-323" value="0..1" style="resizable=0;align=right;verticalAlign=top;labelBackgroundColor=none;fontSize=10;strokeColor=#003366;shadow=1;fillColor=#D4E1F5;fontColor=#003366" connectable="0" vertex="1" parent="jN2Ao2LM-aUM4iMut1JE-321">
          <mxGeometry x="1" relative="1" as="geometry">
            <mxPoint x="29" as="offset" />
          </mxGeometry>
        </mxCell>
        <mxCell id="jN2Ao2LM-aUM4iMut1JE-324" value="has service" style="edgeLabel;html=1;align=center;verticalAlign=middle;resizable=0;points=[];labelBackgroundColor=none;" vertex="1" connectable="0" parent="jN2Ao2LM-aUM4iMut1JE-321">
          <mxGeometry relative="1" as="geometry">
            <mxPoint x="-4" y="-30" as="offset" />
          </mxGeometry>
        </mxCell>
        <mxCell id="jN2Ao2LM-aUM4iMut1JE-325" value="&lt;p style=&quot;margin: 4px 0px 0px; text-align: center;&quot;&gt;&lt;strong style=&quot;&quot;&gt;Service Design Transition Package&lt;/strong&gt;&lt;/p&gt;&lt;hr&gt;&lt;p style=&quot;margin: 0px; margin-left: 8px;&quot;&gt;&lt;br&gt;&lt;/p&gt;" style="verticalAlign=top;align=left;overflow=fill;fontSize=12;fontFamily=Helvetica;html=1;strokeColor=#6c8ebf;shadow=1;fillColor=#dae8fc;" vertex="1" parent="1">
          <mxGeometry x="1750" y="213" width="212" height="40" as="geometry" />
        </mxCell>
        <mxCell id="jN2Ao2LM-aUM4iMut1JE-326" value="" style="endArrow=open;endSize=12;startArrow=open;startSize=14;startFill=0;edgeStyle=orthogonalEdgeStyle;labelBackgroundColor=default;entryX=0.25;entryY=1;entryDx=0;entryDy=0;exitX=0.75;exitY=0;exitDx=0;exitDy=0;endFill=0;" edge="1" parent="1" source="jN2Ao2LM-aUM4iMut1JE-216" target="jN2Ao2LM-aUM4iMut1JE-325">
          <mxGeometry x="620" y="340" as="geometry">
            <mxPoint x="1550" y="356" as="sourcePoint" />
            <mxPoint x="1608" y="240" as="targetPoint" />
            <Array as="points">
              <mxPoint x="1700" y="280" />
              <mxPoint x="1803" y="280" />
            </Array>
          </mxGeometry>
        </mxCell>
        <mxCell id="jN2Ao2LM-aUM4iMut1JE-327" value="1" style="resizable=0;align=left;verticalAlign=top;labelBackgroundColor=none;fontSize=10;strokeColor=#003366;shadow=1;fillColor=#D4E1F5;fontColor=#003366" connectable="0" vertex="1" parent="jN2Ao2LM-aUM4iMut1JE-326">
          <mxGeometry x="-1" relative="1" as="geometry">
            <mxPoint x="10" y="-26" as="offset" />
          </mxGeometry>
        </mxCell>
        <mxCell id="jN2Ao2LM-aUM4iMut1JE-328" value="1" style="resizable=0;align=right;verticalAlign=top;labelBackgroundColor=none;fontSize=10;strokeColor=#003366;shadow=1;fillColor=#D4E1F5;fontColor=#003366" connectable="0" vertex="1" parent="jN2Ao2LM-aUM4iMut1JE-326">
          <mxGeometry x="1" relative="1" as="geometry">
            <mxPoint x="-7" as="offset" />
          </mxGeometry>
        </mxCell>
        <mxCell id="jN2Ao2LM-aUM4iMut1JE-329" value="evolves service" style="edgeLabel;html=1;align=center;verticalAlign=middle;resizable=0;points=[];labelBackgroundColor=none;" vertex="1" connectable="0" parent="jN2Ao2LM-aUM4iMut1JE-326">
          <mxGeometry relative="1" as="geometry">
            <mxPoint x="27" y="10" as="offset" />
          </mxGeometry>
        </mxCell>
      </root>
    </mxGraphModel>
  </diagram>
</mxfile>
